<?xml version="1.0" encoding="utf-8" standalone="no"?>
<!DOCTYPE svg PUBLIC "-//W3C//DTD SVG 1.1//EN"
  "http://www.w3.org/Graphics/SVG/1.1/DTD/svg11.dtd">
<svg xmlns:xlink="http://www.w3.org/1999/xlink" width="720pt" height="864pt" viewBox="0 0 720 864" xmlns="http://www.w3.org/2000/svg" version="1.1">
 <metadata>
  <rdf:RDF xmlns:dc="http://purl.org/dc/elements/1.1/" xmlns:cc="http://creativecommons.org/ns#" xmlns:rdf="http://www.w3.org/1999/02/22-rdf-syntax-ns#">
   <cc:Work>
    <dc:type rdf:resource="http://purl.org/dc/dcmitype/StillImage"/>
    <dc:date>2024-06-05T14:56:25.219359</dc:date>
    <dc:format>image/svg+xml</dc:format>
    <dc:creator>
     <cc:Agent>
      <dc:title>Matplotlib v3.7.5, https://matplotlib.org/</dc:title>
     </cc:Agent>
    </dc:creator>
   </cc:Work>
  </rdf:RDF>
 </metadata>
 <defs>
  <style type="text/css">*{stroke-linejoin: round; stroke-linecap: butt}</style>
 </defs>
 <g id="figure_1">
  <g id="patch_1">
   <path d="M 0 864 
L 720 864 
L 720 0 
L 0 0 
z
" style="fill: #ffffff"/>
  </g>
  <g id="axes_1">
   <g id="patch_2">
    <path d="M 72 186.83052 
L 382.319245 186.83052 
L 382.319245 10.8 
L 72 10.8 
z
" style="fill: #ffffff"/>
   </g>
   <g id="patch_3">
    <path d="M 76.433132 186.83052 
L 111.898189 186.83052 
L 111.898189 96.872995 
L 76.433132 96.872995 
z
" clip-path="url(#p3b907ef2e6)" style="fill: #d1483c"/>
   </g>
   <g id="patch_4">
    <path d="M 120.764453 186.83052 
L 156.229509 186.83052 
L 156.229509 145.940736 
L 120.764453 145.940736 
z
" clip-path="url(#p3b907ef2e6)" style="fill: #df8820"/>
   </g>
   <g id="patch_5">
    <path d="M 165.095774 186.83052 
L 200.56083 186.83052 
L 200.56083 158.207671 
L 165.095774 158.207671 
z
" clip-path="url(#p3b907ef2e6)" style="fill: #e3b141"/>
   </g>
   <g id="patch_6">
    <path d="M 209.427094 186.83052 
L 244.892151 186.83052 
L 244.892151 162.296649 
L 209.427094 162.296649 
z
" clip-path="url(#p3b907ef2e6)" style="fill: #319f58"/>
   </g>
   <g id="patch_7">
    <path d="M 253.758415 186.83052 
L 289.223472 186.83052 
L 289.223472 182.741541 
L 253.758415 182.741541 
z
" clip-path="url(#p3b907ef2e6)" style="fill: #1f7bd5"/>
   </g>
   <g id="patch_8">
    <path d="M 298.089736 186.83052 
L 333.554792 186.83052 
L 333.554792 174.563585 
L 298.089736 174.563585 
z
" clip-path="url(#p3b907ef2e6)" style="fill: #6484e4"/>
   </g>
   <g id="patch_9">
    <path d="M 342.421057 186.83052 
L 377.886113 186.83052 
L 377.886113 182.741541 
L 342.421057 182.741541 
z
" clip-path="url(#p3b907ef2e6)" style="fill: #a489ed"/>
   </g>
   <g id="matplotlib.axis_1">
    <g id="xtick_1">
     <g id="line2d_1">
      <defs>
       <path id="m727085ff40" d="M 0 0 
L 0 3.5 
" style="stroke: #000000; stroke-width: 0.8"/>
      </defs>
      <g>
       <use xlink:href="#m727085ff40" x="94.16566" y="186.83052" style="stroke: #000000; stroke-width: 0.8"/>
      </g>
     </g>
    </g>
    <g id="xtick_2">
     <g id="line2d_2">
      <g>
       <use xlink:href="#m727085ff40" x="138.496981" y="186.83052" style="stroke: #000000; stroke-width: 0.8"/>
      </g>
     </g>
    </g>
    <g id="xtick_3">
     <g id="line2d_3">
      <g>
       <use xlink:href="#m727085ff40" x="182.828302" y="186.83052" style="stroke: #000000; stroke-width: 0.8"/>
      </g>
     </g>
    </g>
    <g id="xtick_4">
     <g id="line2d_4">
      <g>
       <use xlink:href="#m727085ff40" x="227.159623" y="186.83052" style="stroke: #000000; stroke-width: 0.8"/>
      </g>
     </g>
    </g>
    <g id="xtick_5">
     <g id="line2d_5">
      <g>
       <use xlink:href="#m727085ff40" x="271.490943" y="186.83052" style="stroke: #000000; stroke-width: 0.8"/>
      </g>
     </g>
    </g>
    <g id="xtick_6">
     <g id="line2d_6">
      <g>
       <use xlink:href="#m727085ff40" x="315.822264" y="186.83052" style="stroke: #000000; stroke-width: 0.8"/>
      </g>
     </g>
    </g>
    <g id="xtick_7">
     <g id="line2d_7">
      <g>
       <use xlink:href="#m727085ff40" x="360.153585" y="186.83052" style="stroke: #000000; stroke-width: 0.8"/>
      </g>
     </g>
    </g>
   </g>
   <g id="matplotlib.axis_2">
    <g id="ytick_1">
     <g id="line2d_8">
      <defs>
       <path id="md4c9fd8588" d="M 0 0 
L -3.5 0 
" style="stroke: #000000; stroke-width: 0.8"/>
      </defs>
      <g>
       <use xlink:href="#md4c9fd8588" x="72" y="186.83052" style="stroke: #000000; stroke-width: 0.8"/>
      </g>
     </g>
     <g id="text_1">
      <!-- 0 -->
      <g transform="translate(56 193.079895) scale(0.18 -0.18)">
       <defs>
        <path id="TimesNewRomanPSMT-30" d="M 231 2094 
Q 231 2819 450 3342 
Q 669 3866 1031 4122 
Q 1313 4325 1613 4325 
Q 2100 4325 2488 3828 
Q 2972 3213 2972 2159 
Q 2972 1422 2759 906 
Q 2547 391 2217 158 
Q 1888 -75 1581 -75 
Q 975 -75 572 641 
Q 231 1244 231 2094 
z
M 844 2016 
Q 844 1141 1059 588 
Q 1238 122 1591 122 
Q 1759 122 1940 273 
Q 2122 425 2216 781 
Q 2359 1319 2359 2297 
Q 2359 3022 2209 3506 
Q 2097 3866 1919 4016 
Q 1791 4119 1609 4119 
Q 1397 4119 1231 3928 
Q 1006 3669 925 3112 
Q 844 2556 844 2016 
z
" transform="scale(0.015625)"/>
       </defs>
       <use xlink:href="#TimesNewRomanPSMT-30"/>
      </g>
     </g>
    </g>
    <g id="ytick_2">
     <g id="line2d_9">
      <g>
       <use xlink:href="#md4c9fd8588" x="72" y="135.71829" style="stroke: #000000; stroke-width: 0.8"/>
      </g>
     </g>
     <g id="text_2">
      <!-- 25 -->
      <g transform="translate(47 141.967665) scale(0.18 -0.18)">
       <defs>
        <path id="TimesNewRomanPSMT-32" d="M 2934 816 
L 2638 0 
L 138 0 
L 138 116 
Q 1241 1122 1691 1759 
Q 2141 2397 2141 2925 
Q 2141 3328 1894 3587 
Q 1647 3847 1303 3847 
Q 991 3847 742 3664 
Q 494 3481 375 3128 
L 259 3128 
Q 338 3706 661 4015 
Q 984 4325 1469 4325 
Q 1984 4325 2329 3994 
Q 2675 3663 2675 3213 
Q 2675 2891 2525 2569 
Q 2294 2063 1775 1497 
Q 997 647 803 472 
L 1909 472 
Q 2247 472 2383 497 
Q 2519 522 2628 598 
Q 2738 675 2819 816 
L 2934 816 
z
" transform="scale(0.015625)"/>
        <path id="TimesNewRomanPSMT-35" d="M 2778 4238 
L 2534 3706 
L 1259 3706 
L 981 3138 
Q 1809 3016 2294 2522 
Q 2709 2097 2709 1522 
Q 2709 1188 2573 903 
Q 2438 619 2231 419 
Q 2025 219 1772 97 
Q 1413 -75 1034 -75 
Q 653 -75 479 54 
Q 306 184 306 341 
Q 306 428 378 495 
Q 450 563 559 563 
Q 641 563 702 538 
Q 763 513 909 409 
Q 1144 247 1384 247 
Q 1750 247 2026 523 
Q 2303 800 2303 1197 
Q 2303 1581 2056 1914 
Q 1809 2247 1375 2428 
Q 1034 2569 447 2591 
L 1259 4238 
L 2778 4238 
z
" transform="scale(0.015625)"/>
       </defs>
       <use xlink:href="#TimesNewRomanPSMT-32"/>
       <use xlink:href="#TimesNewRomanPSMT-35" x="50"/>
      </g>
     </g>
    </g>
    <g id="ytick_3">
     <g id="line2d_10">
      <g>
       <use xlink:href="#md4c9fd8588" x="72" y="84.60606" style="stroke: #000000; stroke-width: 0.8"/>
      </g>
     </g>
     <g id="text_3">
      <!-- 50 -->
      <g transform="translate(47 90.855435) scale(0.18 -0.18)">
       <use xlink:href="#TimesNewRomanPSMT-35"/>
       <use xlink:href="#TimesNewRomanPSMT-30" x="50"/>
      </g>
     </g>
    </g>
    <g id="ytick_4">
     <g id="line2d_11">
      <g>
       <use xlink:href="#md4c9fd8588" x="72" y="33.49383" style="stroke: #000000; stroke-width: 0.8"/>
      </g>
     </g>
     <g id="text_4">
      <!-- 75 -->
      <g transform="translate(47 39.743205) scale(0.18 -0.18)">
       <defs>
        <path id="TimesNewRomanPSMT-37" d="M 644 4238 
L 2916 4238 
L 2916 4119 
L 1503 -88 
L 1153 -88 
L 2419 3728 
L 1253 3728 
Q 900 3728 750 3644 
Q 488 3500 328 3200 
L 238 3234 
L 644 4238 
z
" transform="scale(0.015625)"/>
       </defs>
       <use xlink:href="#TimesNewRomanPSMT-37"/>
       <use xlink:href="#TimesNewRomanPSMT-35" x="50"/>
      </g>
     </g>
    </g>
   </g>
   <g id="patch_10">
    <path d="M 72 186.83052 
L 72 10.8 
" style="fill: none; stroke: #000000; stroke-width: 0.8; stroke-linejoin: miter; stroke-linecap: square"/>
   </g>
   <g id="patch_11">
    <path d="M 382.319245 186.83052 
L 382.319245 10.8 
" style="fill: none; stroke: #000000; stroke-width: 0.8; stroke-linejoin: miter; stroke-linecap: square"/>
   </g>
   <g id="patch_12">
    <path d="M 72 186.83052 
L 382.319245 186.83052 
" style="fill: none; stroke: #000000; stroke-width: 0.8; stroke-linejoin: miter; stroke-linecap: square"/>
   </g>
   <g id="patch_13">
    <path d="M 72 10.8 
L 382.319245 10.8 
" style="fill: none; stroke: #000000; stroke-width: 0.8; stroke-linejoin: miter; stroke-linecap: square"/>
   </g>
   <g id="text_5">
    <!-- Bala Classification -->
    <g transform="translate(136.177123 34.168677) scale(0.24 -0.24)">
     <defs>
      <path id="TimesNewRomanPSMT-42" d="M 2956 2163 
Q 3397 2069 3616 1863 
Q 3919 1575 3919 1159 
Q 3919 844 3719 555 
Q 3519 266 3170 133 
Q 2822 0 2106 0 
L 106 0 
L 106 116 
L 266 116 
Q 531 116 647 284 
Q 719 394 719 750 
L 719 3488 
Q 719 3881 628 3984 
Q 506 4122 266 4122 
L 106 4122 
L 106 4238 
L 1938 4238 
Q 2450 4238 2759 4163 
Q 3228 4050 3475 3764 
Q 3722 3478 3722 3106 
Q 3722 2788 3528 2536 
Q 3334 2284 2956 2163 
z
M 1319 2331 
Q 1434 2309 1582 2298 
Q 1731 2288 1909 2288 
Q 2366 2288 2595 2386 
Q 2825 2484 2947 2687 
Q 3069 2891 3069 3131 
Q 3069 3503 2766 3765 
Q 2463 4028 1881 4028 
Q 1569 4028 1319 3959 
L 1319 2331 
z
M 1319 306 
Q 1681 222 2034 222 
Q 2600 222 2897 476 
Q 3194 731 3194 1106 
Q 3194 1353 3059 1581 
Q 2925 1809 2622 1940 
Q 2319 2072 1872 2072 
Q 1678 2072 1540 2065 
Q 1403 2059 1319 2044 
L 1319 306 
z
" transform="scale(0.015625)"/>
      <path id="TimesNewRomanPSMT-61" d="M 1822 413 
Q 1381 72 1269 19 
Q 1100 -59 909 -59 
Q 613 -59 420 144 
Q 228 347 228 678 
Q 228 888 322 1041 
Q 450 1253 767 1440 
Q 1084 1628 1822 1897 
L 1822 2009 
Q 1822 2438 1686 2597 
Q 1550 2756 1291 2756 
Q 1094 2756 978 2650 
Q 859 2544 859 2406 
L 866 2225 
Q 866 2081 792 2003 
Q 719 1925 600 1925 
Q 484 1925 411 2006 
Q 338 2088 338 2228 
Q 338 2497 613 2722 
Q 888 2947 1384 2947 
Q 1766 2947 2009 2819 
Q 2194 2722 2281 2516 
Q 2338 2381 2338 1966 
L 2338 994 
Q 2338 584 2353 492 
Q 2369 400 2405 369 
Q 2441 338 2488 338 
Q 2538 338 2575 359 
Q 2641 400 2828 588 
L 2828 413 
Q 2478 -56 2159 -56 
Q 2006 -56 1915 50 
Q 1825 156 1822 413 
z
M 1822 616 
L 1822 1706 
Q 1350 1519 1213 1441 
Q 966 1303 859 1153 
Q 753 1003 753 825 
Q 753 600 887 451 
Q 1022 303 1197 303 
Q 1434 303 1822 616 
z
" transform="scale(0.015625)"/>
      <path id="TimesNewRomanPSMT-6c" d="M 1184 4444 
L 1184 647 
Q 1184 378 1223 290 
Q 1263 203 1344 158 
Q 1425 113 1647 113 
L 1647 0 
L 244 0 
L 244 113 
Q 441 113 512 153 
Q 584 194 625 287 
Q 666 381 666 647 
L 666 3247 
Q 666 3731 644 3842 
Q 622 3953 573 3993 
Q 525 4034 450 4034 
Q 369 4034 244 3984 
L 191 4094 
L 1044 4444 
L 1184 4444 
z
" transform="scale(0.015625)"/>
      <path id="TimesNewRomanPSMT-20" transform="scale(0.015625)"/>
      <path id="TimesNewRomanPSMT-43" d="M 3853 4334 
L 3950 2894 
L 3853 2894 
Q 3659 3541 3300 3825 
Q 2941 4109 2438 4109 
Q 2016 4109 1675 3895 
Q 1334 3681 1139 3212 
Q 944 2744 944 2047 
Q 944 1472 1128 1050 
Q 1313 628 1683 403 
Q 2053 178 2528 178 
Q 2941 178 3256 354 
Q 3572 531 3950 1056 
L 4047 994 
Q 3728 428 3303 165 
Q 2878 -97 2294 -97 
Q 1241 -97 663 684 
Q 231 1266 231 2053 
Q 231 2688 515 3219 
Q 800 3750 1298 4042 
Q 1797 4334 2388 4334 
Q 2847 4334 3294 4109 
Q 3425 4041 3481 4041 
Q 3566 4041 3628 4100 
Q 3709 4184 3744 4334 
L 3853 4334 
z
" transform="scale(0.015625)"/>
      <path id="TimesNewRomanPSMT-73" d="M 2050 2947 
L 2050 1972 
L 1947 1972 
Q 1828 2431 1642 2597 
Q 1456 2763 1169 2763 
Q 950 2763 815 2647 
Q 681 2531 681 2391 
Q 681 2216 781 2091 
Q 878 1963 1175 1819 
L 1631 1597 
Q 2266 1288 2266 781 
Q 2266 391 1970 151 
Q 1675 -88 1309 -88 
Q 1047 -88 709 6 
Q 606 38 541 38 
Q 469 38 428 -44 
L 325 -44 
L 325 978 
L 428 978 
Q 516 541 762 319 
Q 1009 97 1316 97 
Q 1531 97 1667 223 
Q 1803 350 1803 528 
Q 1803 744 1651 891 
Q 1500 1038 1047 1263 
Q 594 1488 453 1669 
Q 313 1847 313 2119 
Q 313 2472 555 2709 
Q 797 2947 1181 2947 
Q 1350 2947 1591 2875 
Q 1750 2828 1803 2828 
Q 1853 2828 1881 2850 
Q 1909 2872 1947 2947 
L 2050 2947 
z
" transform="scale(0.015625)"/>
      <path id="TimesNewRomanPSMT-69" d="M 928 4444 
Q 1059 4444 1151 4351 
Q 1244 4259 1244 4128 
Q 1244 3997 1151 3903 
Q 1059 3809 928 3809 
Q 797 3809 703 3903 
Q 609 3997 609 4128 
Q 609 4259 701 4351 
Q 794 4444 928 4444 
z
M 1188 2947 
L 1188 647 
Q 1188 378 1227 289 
Q 1266 200 1342 156 
Q 1419 113 1622 113 
L 1622 0 
L 231 0 
L 231 113 
Q 441 113 512 153 
Q 584 194 626 287 
Q 669 381 669 647 
L 669 1750 
Q 669 2216 641 2353 
Q 619 2453 572 2492 
Q 525 2531 444 2531 
Q 356 2531 231 2484 
L 188 2597 
L 1050 2947 
L 1188 2947 
z
" transform="scale(0.015625)"/>
      <path id="TimesNewRomanPSMT-66" d="M 1319 2638 
L 1319 756 
Q 1319 356 1406 250 
Q 1522 113 1716 113 
L 1975 113 
L 1975 0 
L 266 0 
L 266 113 
L 394 113 
Q 519 113 622 175 
Q 725 238 764 344 
Q 803 450 803 756 
L 803 2638 
L 247 2638 
L 247 2863 
L 803 2863 
L 803 3050 
Q 803 3478 940 3775 
Q 1078 4072 1361 4255 
Q 1644 4438 1997 4438 
Q 2325 4438 2600 4225 
Q 2781 4084 2781 3909 
Q 2781 3816 2700 3733 
Q 2619 3650 2525 3650 
Q 2453 3650 2373 3701 
Q 2294 3753 2178 3923 
Q 2063 4094 1966 4153 
Q 1869 4213 1750 4213 
Q 1606 4213 1506 4136 
Q 1406 4059 1362 3898 
Q 1319 3738 1319 3069 
L 1319 2863 
L 2056 2863 
L 2056 2638 
L 1319 2638 
z
" transform="scale(0.015625)"/>
      <path id="TimesNewRomanPSMT-63" d="M 2631 1088 
Q 2516 522 2178 217 
Q 1841 -88 1431 -88 
Q 944 -88 581 321 
Q 219 731 219 1428 
Q 219 2103 620 2525 
Q 1022 2947 1584 2947 
Q 2006 2947 2278 2723 
Q 2550 2500 2550 2259 
Q 2550 2141 2473 2067 
Q 2397 1994 2259 1994 
Q 2075 1994 1981 2113 
Q 1928 2178 1911 2362 
Q 1894 2547 1784 2644 
Q 1675 2738 1481 2738 
Q 1169 2738 978 2506 
Q 725 2200 725 1697 
Q 725 1184 976 792 
Q 1228 400 1656 400 
Q 1963 400 2206 609 
Q 2378 753 2541 1131 
L 2631 1088 
z
" transform="scale(0.015625)"/>
      <path id="TimesNewRomanPSMT-74" d="M 1031 3803 
L 1031 2863 
L 1700 2863 
L 1700 2644 
L 1031 2644 
L 1031 788 
Q 1031 509 1111 412 
Q 1191 316 1316 316 
Q 1419 316 1516 380 
Q 1613 444 1666 569 
L 1788 569 
Q 1678 263 1478 108 
Q 1278 -47 1066 -47 
Q 922 -47 784 33 
Q 647 113 581 261 
Q 516 409 516 719 
L 516 2644 
L 63 2644 
L 63 2747 
Q 234 2816 414 2980 
Q 594 3144 734 3369 
Q 806 3488 934 3803 
L 1031 3803 
z
" transform="scale(0.015625)"/>
      <path id="TimesNewRomanPSMT-6f" d="M 1600 2947 
Q 2250 2947 2644 2453 
Q 2978 2031 2978 1484 
Q 2978 1100 2793 706 
Q 2609 313 2286 112 
Q 1963 -88 1566 -88 
Q 919 -88 538 428 
Q 216 863 216 1403 
Q 216 1797 411 2186 
Q 606 2575 925 2761 
Q 1244 2947 1600 2947 
z
M 1503 2744 
Q 1338 2744 1170 2645 
Q 1003 2547 900 2300 
Q 797 2053 797 1666 
Q 797 1041 1045 587 
Q 1294 134 1700 134 
Q 2003 134 2200 384 
Q 2397 634 2397 1244 
Q 2397 2006 2069 2444 
Q 1847 2744 1503 2744 
z
" transform="scale(0.015625)"/>
      <path id="TimesNewRomanPSMT-6e" d="M 1034 2341 
Q 1538 2947 1994 2947 
Q 2228 2947 2397 2830 
Q 2566 2713 2666 2444 
Q 2734 2256 2734 1869 
L 2734 647 
Q 2734 375 2778 278 
Q 2813 200 2889 156 
Q 2966 113 3172 113 
L 3172 0 
L 1756 0 
L 1756 113 
L 1816 113 
Q 2016 113 2095 173 
Q 2175 234 2206 353 
Q 2219 400 2219 647 
L 2219 1819 
Q 2219 2209 2117 2386 
Q 2016 2563 1775 2563 
Q 1403 2563 1034 2156 
L 1034 647 
Q 1034 356 1069 288 
Q 1113 197 1189 155 
Q 1266 113 1500 113 
L 1500 0 
L 84 0 
L 84 113 
L 147 113 
Q 366 113 442 223 
Q 519 334 519 647 
L 519 1709 
Q 519 2225 495 2337 
Q 472 2450 423 2490 
Q 375 2531 294 2531 
Q 206 2531 84 2484 
L 38 2597 
L 900 2947 
L 1034 2947 
L 1034 2341 
z
" transform="scale(0.015625)"/>
     </defs>
     <use xlink:href="#TimesNewRomanPSMT-42"/>
     <use xlink:href="#TimesNewRomanPSMT-61" x="66.699219"/>
     <use xlink:href="#TimesNewRomanPSMT-6c" x="111.083984"/>
     <use xlink:href="#TimesNewRomanPSMT-61" x="138.867188"/>
     <use xlink:href="#TimesNewRomanPSMT-20" x="183.251953"/>
     <use xlink:href="#TimesNewRomanPSMT-43" x="208.251953"/>
     <use xlink:href="#TimesNewRomanPSMT-6c" x="274.951172"/>
     <use xlink:href="#TimesNewRomanPSMT-61" x="302.734375"/>
     <use xlink:href="#TimesNewRomanPSMT-73" x="347.119141"/>
     <use xlink:href="#TimesNewRomanPSMT-73" x="386.035156"/>
     <use xlink:href="#TimesNewRomanPSMT-69" x="424.951172"/>
     <use xlink:href="#TimesNewRomanPSMT-66" x="452.734375"/>
     <use xlink:href="#TimesNewRomanPSMT-69" x="486.035156"/>
     <use xlink:href="#TimesNewRomanPSMT-63" x="513.818359"/>
     <use xlink:href="#TimesNewRomanPSMT-61" x="558.203125"/>
     <use xlink:href="#TimesNewRomanPSMT-74" x="602.587891"/>
     <use xlink:href="#TimesNewRomanPSMT-69" x="630.371094"/>
     <use xlink:href="#TimesNewRomanPSMT-6f" x="658.154297"/>
     <use xlink:href="#TimesNewRomanPSMT-6e" x="708.154297"/>
    </g>
   </g>
  </g>
  <g id="axes_2">
   <g id="patch_14">
    <path d="M 398.880755 186.83052 
L 709.2 186.83052 
L 709.2 10.8 
L 398.880755 10.8 
z
" style="fill: #ffffff"/>
   </g>
   <g id="patch_15">
    <path d="M 403.313887 186.83052 
L 438.778943 186.83052 
L 438.778943 96.872995 
L 403.313887 96.872995 
z
" clip-path="url(#pe8e9a657c9)" style="fill: #d1483c"/>
   </g>
   <g id="patch_16">
    <path d="M 447.645208 186.83052 
L 483.110264 186.83052 
L 483.110264 129.584822 
L 447.645208 129.584822 
z
" clip-path="url(#pe8e9a657c9)" style="fill: #df8820"/>
   </g>
   <g id="patch_17">
    <path d="M 536.307849 186.83052 
L 571.772906 186.83052 
L 571.772906 178.652563 
L 536.307849 178.652563 
z
" clip-path="url(#pe8e9a657c9)" style="fill: #319f58"/>
   </g>
   <g id="patch_18">
    <path d="M 580.63917 186.83052 
L 616.104226 186.83052 
L 616.104226 154.118693 
L 580.63917 154.118693 
z
" clip-path="url(#pe8e9a657c9)" style="fill: #1f7bd5"/>
   </g>
   <g id="patch_19">
    <path d="M 624.970491 186.83052 
L 660.435547 186.83052 
L 660.435547 170.474606 
L 624.970491 170.474606 
z
" clip-path="url(#pe8e9a657c9)" style="fill: #6484e4"/>
   </g>
   <g id="matplotlib.axis_3">
    <g id="xtick_8">
     <g id="line2d_12">
      <g>
       <use xlink:href="#m727085ff40" x="421.046415" y="186.83052" style="stroke: #000000; stroke-width: 0.8"/>
      </g>
     </g>
    </g>
    <g id="xtick_9">
     <g id="line2d_13">
      <g>
       <use xlink:href="#m727085ff40" x="465.377736" y="186.83052" style="stroke: #000000; stroke-width: 0.8"/>
      </g>
     </g>
    </g>
    <g id="xtick_10">
     <g id="line2d_14">
      <g>
       <use xlink:href="#m727085ff40" x="509.709057" y="186.83052" style="stroke: #000000; stroke-width: 0.8"/>
      </g>
     </g>
    </g>
    <g id="xtick_11">
     <g id="line2d_15">
      <g>
       <use xlink:href="#m727085ff40" x="554.040377" y="186.83052" style="stroke: #000000; stroke-width: 0.8"/>
      </g>
     </g>
    </g>
    <g id="xtick_12">
     <g id="line2d_16">
      <g>
       <use xlink:href="#m727085ff40" x="598.371698" y="186.83052" style="stroke: #000000; stroke-width: 0.8"/>
      </g>
     </g>
    </g>
    <g id="xtick_13">
     <g id="line2d_17">
      <g>
       <use xlink:href="#m727085ff40" x="642.703019" y="186.83052" style="stroke: #000000; stroke-width: 0.8"/>
      </g>
     </g>
    </g>
    <g id="xtick_14">
     <g id="line2d_18">
      <g>
       <use xlink:href="#m727085ff40" x="687.03434" y="186.83052" style="stroke: #000000; stroke-width: 0.8"/>
      </g>
     </g>
    </g>
   </g>
   <g id="matplotlib.axis_4">
    <g id="ytick_5">
     <g id="line2d_19">
      <g>
       <use xlink:href="#md4c9fd8588" x="398.880755" y="186.83052" style="stroke: #000000; stroke-width: 0.8"/>
      </g>
     </g>
    </g>
    <g id="ytick_6">
     <g id="line2d_20">
      <g>
       <use xlink:href="#md4c9fd8588" x="398.880755" y="135.71829" style="stroke: #000000; stroke-width: 0.8"/>
      </g>
     </g>
    </g>
    <g id="ytick_7">
     <g id="line2d_21">
      <g>
       <use xlink:href="#md4c9fd8588" x="398.880755" y="84.60606" style="stroke: #000000; stroke-width: 0.8"/>
      </g>
     </g>
    </g>
    <g id="ytick_8">
     <g id="line2d_22">
      <g>
       <use xlink:href="#md4c9fd8588" x="398.880755" y="33.49383" style="stroke: #000000; stroke-width: 0.8"/>
      </g>
     </g>
    </g>
   </g>
   <g id="patch_20">
    <path d="M 398.880755 186.83052 
L 398.880755 10.8 
" style="fill: none; stroke: #000000; stroke-width: 0.8; stroke-linejoin: miter; stroke-linecap: square"/>
   </g>
   <g id="patch_21">
    <path d="M 709.2 186.83052 
L 709.2 10.8 
" style="fill: none; stroke: #000000; stroke-width: 0.8; stroke-linejoin: miter; stroke-linecap: square"/>
   </g>
   <g id="patch_22">
    <path d="M 398.880755 186.83052 
L 709.2 186.83052 
" style="fill: none; stroke: #000000; stroke-width: 0.8; stroke-linejoin: miter; stroke-linecap: square"/>
   </g>
   <g id="patch_23">
    <path d="M 398.880755 10.8 
L 709.2 10.8 
" style="fill: none; stroke: #000000; stroke-width: 0.8; stroke-linejoin: miter; stroke-linecap: square"/>
   </g>
   <g id="text_6">
    <!-- Bala Regression -->
    <g transform="translate(475.719752 34.146177) scale(0.24 -0.24)">
     <defs>
      <path id="TimesNewRomanPSMT-52" d="M 4325 0 
L 3194 0 
L 1759 1981 
Q 1600 1975 1500 1975 
Q 1459 1975 1412 1976 
Q 1366 1978 1316 1981 
L 1316 750 
Q 1316 350 1403 253 
Q 1522 116 1759 116 
L 1925 116 
L 1925 0 
L 109 0 
L 109 116 
L 269 116 
Q 538 116 653 291 
Q 719 388 719 750 
L 719 3488 
Q 719 3888 631 3984 
Q 509 4122 269 4122 
L 109 4122 
L 109 4238 
L 1653 4238 
Q 2328 4238 2648 4139 
Q 2969 4041 3192 3777 
Q 3416 3513 3416 3147 
Q 3416 2756 3161 2468 
Q 2906 2181 2372 2063 
L 3247 847 
Q 3547 428 3762 290 
Q 3978 153 4325 116 
L 4325 0 
z
M 1316 2178 
Q 1375 2178 1419 2176 
Q 1463 2175 1491 2175 
Q 2097 2175 2405 2437 
Q 2713 2700 2713 3106 
Q 2713 3503 2464 3751 
Q 2216 4000 1806 4000 
Q 1625 4000 1316 3941 
L 1316 2178 
z
" transform="scale(0.015625)"/>
      <path id="TimesNewRomanPSMT-65" d="M 681 1784 
Q 678 1147 991 784 
Q 1303 422 1725 422 
Q 2006 422 2214 576 
Q 2422 731 2563 1106 
L 2659 1044 
Q 2594 616 2278 264 
Q 1963 -88 1488 -88 
Q 972 -88 605 314 
Q 238 716 238 1394 
Q 238 2128 614 2539 
Q 991 2950 1559 2950 
Q 2041 2950 2350 2633 
Q 2659 2316 2659 1784 
L 681 1784 
z
M 681 1966 
L 2006 1966 
Q 1991 2241 1941 2353 
Q 1863 2528 1708 2628 
Q 1553 2728 1384 2728 
Q 1125 2728 920 2526 
Q 716 2325 681 1966 
z
" transform="scale(0.015625)"/>
      <path id="TimesNewRomanPSMT-67" d="M 966 1044 
Q 703 1172 562 1401 
Q 422 1631 422 1909 
Q 422 2334 742 2640 
Q 1063 2947 1563 2947 
Q 1972 2947 2272 2747 
L 2878 2747 
Q 3013 2747 3034 2739 
Q 3056 2731 3066 2713 
Q 3084 2684 3084 2613 
Q 3084 2531 3069 2500 
Q 3059 2484 3036 2475 
Q 3013 2466 2878 2466 
L 2506 2466 
Q 2681 2241 2681 1891 
Q 2681 1491 2375 1206 
Q 2069 922 1553 922 
Q 1341 922 1119 984 
Q 981 866 932 777 
Q 884 688 884 625 
Q 884 572 936 522 
Q 988 472 1138 450 
Q 1225 438 1575 428 
Q 2219 413 2409 384 
Q 2700 344 2873 169 
Q 3047 -6 3047 -263 
Q 3047 -616 2716 -925 
Q 2228 -1381 1444 -1381 
Q 841 -1381 425 -1109 
Q 191 -953 191 -784 
Q 191 -709 225 -634 
Q 278 -519 444 -313 
Q 466 -284 763 25 
Q 600 122 533 198 
Q 466 275 466 372 
Q 466 481 555 628 
Q 644 775 966 1044 
z
M 1509 2797 
Q 1278 2797 1122 2612 
Q 966 2428 966 2047 
Q 966 1553 1178 1281 
Q 1341 1075 1591 1075 
Q 1828 1075 1981 1253 
Q 2134 1431 2134 1813 
Q 2134 2309 1919 2591 
Q 1759 2797 1509 2797 
z
M 934 0 
Q 788 -159 713 -296 
Q 638 -434 638 -550 
Q 638 -700 819 -813 
Q 1131 -1006 1722 -1006 
Q 2284 -1006 2551 -807 
Q 2819 -609 2819 -384 
Q 2819 -222 2659 -153 
Q 2497 -84 2016 -72 
Q 1313 -53 934 0 
z
" transform="scale(0.015625)"/>
      <path id="TimesNewRomanPSMT-72" d="M 1038 2947 
L 1038 2303 
Q 1397 2947 1775 2947 
Q 1947 2947 2059 2842 
Q 2172 2738 2172 2600 
Q 2172 2478 2090 2393 
Q 2009 2309 1897 2309 
Q 1788 2309 1652 2417 
Q 1516 2525 1450 2525 
Q 1394 2525 1328 2463 
Q 1188 2334 1038 2041 
L 1038 669 
Q 1038 431 1097 309 
Q 1138 225 1241 169 
Q 1344 113 1538 113 
L 1538 0 
L 72 0 
L 72 113 
Q 291 113 397 181 
Q 475 231 506 341 
Q 522 394 522 644 
L 522 1753 
Q 522 2253 501 2348 
Q 481 2444 426 2487 
Q 372 2531 291 2531 
Q 194 2531 72 2484 
L 41 2597 
L 906 2947 
L 1038 2947 
z
" transform="scale(0.015625)"/>
     </defs>
     <use xlink:href="#TimesNewRomanPSMT-42"/>
     <use xlink:href="#TimesNewRomanPSMT-61" x="66.699219"/>
     <use xlink:href="#TimesNewRomanPSMT-6c" x="111.083984"/>
     <use xlink:href="#TimesNewRomanPSMT-61" x="138.867188"/>
     <use xlink:href="#TimesNewRomanPSMT-20" x="183.251953"/>
     <use xlink:href="#TimesNewRomanPSMT-52" x="208.251953"/>
     <use xlink:href="#TimesNewRomanPSMT-65" x="274.951172"/>
     <use xlink:href="#TimesNewRomanPSMT-67" x="319.335938"/>
     <use xlink:href="#TimesNewRomanPSMT-72" x="369.335938"/>
     <use xlink:href="#TimesNewRomanPSMT-65" x="402.636719"/>
     <use xlink:href="#TimesNewRomanPSMT-73" x="447.021484"/>
     <use xlink:href="#TimesNewRomanPSMT-73" x="485.9375"/>
     <use xlink:href="#TimesNewRomanPSMT-69" x="524.853516"/>
     <use xlink:href="#TimesNewRomanPSMT-6f" x="552.636719"/>
     <use xlink:href="#TimesNewRomanPSMT-6e" x="602.636719"/>
    </g>
   </g>
  </g>
  <g id="axes_3">
   <g id="patch_24">
    <path d="M 72 383.75368 
L 382.319245 383.75368 
L 382.319245 207.72316 
L 72 207.72316 
z
" style="fill: #ffffff"/>
   </g>
   <g id="patch_25">
    <path d="M 76.433132 383.75368 
L 111.898189 383.75368 
L 111.898189 251.997709 
L 76.433132 251.997709 
z
" clip-path="url(#p312b47061a)" style="fill: #d1483c"/>
   </g>
   <g id="patch_26">
    <path d="M 120.764453 383.75368 
L 156.229509 383.75368 
L 156.229509 374.667061 
L 120.764453 374.667061 
z
" clip-path="url(#p312b47061a)" style="fill: #df8820"/>
   </g>
   <g id="patch_27">
    <path d="M 165.095774 383.75368 
L 200.56083 383.75368 
L 200.56083 374.667061 
L 165.095774 374.667061 
z
" clip-path="url(#p312b47061a)" style="fill: #e3b141"/>
   </g>
   <g id="patch_28">
    <path d="M 209.427094 383.75368 
L 244.892151 383.75368 
L 244.892151 379.210371 
L 209.427094 379.210371 
z
" clip-path="url(#p312b47061a)" style="fill: #319f58"/>
   </g>
   <g id="patch_29">
    <path d="M 253.758415 383.75368 
L 289.223472 383.75368 
L 289.223472 370.123752 
L 253.758415 370.123752 
z
" clip-path="url(#p312b47061a)" style="fill: #1f7bd5"/>
   </g>
   <g id="patch_30">
    <path d="M 298.089736 383.75368 
L 333.554792 383.75368 
L 333.554792 361.037133 
L 298.089736 361.037133 
z
" clip-path="url(#p312b47061a)" style="fill: #6484e4"/>
   </g>
   <g id="patch_31">
    <path d="M 342.421057 383.75368 
L 377.886113 383.75368 
L 377.886113 370.123752 
L 342.421057 370.123752 
z
" clip-path="url(#p312b47061a)" style="fill: #a489ed"/>
   </g>
   <g id="matplotlib.axis_5">
    <g id="xtick_15">
     <g id="line2d_23">
      <g>
       <use xlink:href="#m727085ff40" x="94.16566" y="383.75368" style="stroke: #000000; stroke-width: 0.8"/>
      </g>
     </g>
    </g>
    <g id="xtick_16">
     <g id="line2d_24">
      <g>
       <use xlink:href="#m727085ff40" x="138.496981" y="383.75368" style="stroke: #000000; stroke-width: 0.8"/>
      </g>
     </g>
    </g>
    <g id="xtick_17">
     <g id="line2d_25">
      <g>
       <use xlink:href="#m727085ff40" x="182.828302" y="383.75368" style="stroke: #000000; stroke-width: 0.8"/>
      </g>
     </g>
    </g>
    <g id="xtick_18">
     <g id="line2d_26">
      <g>
       <use xlink:href="#m727085ff40" x="227.159623" y="383.75368" style="stroke: #000000; stroke-width: 0.8"/>
      </g>
     </g>
    </g>
    <g id="xtick_19">
     <g id="line2d_27">
      <g>
       <use xlink:href="#m727085ff40" x="271.490943" y="383.75368" style="stroke: #000000; stroke-width: 0.8"/>
      </g>
     </g>
    </g>
    <g id="xtick_20">
     <g id="line2d_28">
      <g>
       <use xlink:href="#m727085ff40" x="315.822264" y="383.75368" style="stroke: #000000; stroke-width: 0.8"/>
      </g>
     </g>
    </g>
    <g id="xtick_21">
     <g id="line2d_29">
      <g>
       <use xlink:href="#m727085ff40" x="360.153585" y="383.75368" style="stroke: #000000; stroke-width: 0.8"/>
      </g>
     </g>
    </g>
   </g>
   <g id="matplotlib.axis_6">
    <g id="ytick_9">
     <g id="line2d_30">
      <g>
       <use xlink:href="#md4c9fd8588" x="72" y="383.75368" style="stroke: #000000; stroke-width: 0.8"/>
      </g>
     </g>
     <g id="text_7">
      <!-- 0 -->
      <g transform="translate(56 390.003055) scale(0.18 -0.18)">
       <use xlink:href="#TimesNewRomanPSMT-30"/>
      </g>
     </g>
    </g>
    <g id="ytick_10">
     <g id="line2d_31">
      <g>
       <use xlink:href="#md4c9fd8588" x="72" y="332.64145" style="stroke: #000000; stroke-width: 0.8"/>
      </g>
     </g>
     <g id="text_8">
      <!-- 25 -->
      <g transform="translate(47 338.890825) scale(0.18 -0.18)">
       <use xlink:href="#TimesNewRomanPSMT-32"/>
       <use xlink:href="#TimesNewRomanPSMT-35" x="50"/>
      </g>
     </g>
    </g>
    <g id="ytick_11">
     <g id="line2d_32">
      <g>
       <use xlink:href="#md4c9fd8588" x="72" y="281.52922" style="stroke: #000000; stroke-width: 0.8"/>
      </g>
     </g>
     <g id="text_9">
      <!-- 50 -->
      <g transform="translate(47 287.778595) scale(0.18 -0.18)">
       <use xlink:href="#TimesNewRomanPSMT-35"/>
       <use xlink:href="#TimesNewRomanPSMT-30" x="50"/>
      </g>
     </g>
    </g>
    <g id="ytick_12">
     <g id="line2d_33">
      <g>
       <use xlink:href="#md4c9fd8588" x="72" y="230.41699" style="stroke: #000000; stroke-width: 0.8"/>
      </g>
     </g>
     <g id="text_10">
      <!-- 75 -->
      <g transform="translate(47 236.666365) scale(0.18 -0.18)">
       <use xlink:href="#TimesNewRomanPSMT-37"/>
       <use xlink:href="#TimesNewRomanPSMT-35" x="50"/>
      </g>
     </g>
    </g>
   </g>
   <g id="patch_32">
    <path d="M 72 383.75368 
L 72 207.72316 
" style="fill: none; stroke: #000000; stroke-width: 0.8; stroke-linejoin: miter; stroke-linecap: square"/>
   </g>
   <g id="patch_33">
    <path d="M 382.319245 383.75368 
L 382.319245 207.72316 
" style="fill: none; stroke: #000000; stroke-width: 0.8; stroke-linejoin: miter; stroke-linecap: square"/>
   </g>
   <g id="patch_34">
    <path d="M 72 383.75368 
L 382.319245 383.75368 
" style="fill: none; stroke: #000000; stroke-width: 0.8; stroke-linejoin: miter; stroke-linecap: square"/>
   </g>
   <g id="patch_35">
    <path d="M 72 207.72316 
L 382.319245 207.72316 
" style="fill: none; stroke: #000000; stroke-width: 0.8; stroke-linejoin: miter; stroke-linecap: square"/>
   </g>
   <g id="text_11">
    <!-- BMDS -->
    <g transform="translate(193.145248 231.091837) scale(0.24 -0.24)">
     <defs>
      <path id="TimesNewRomanPSMT-4d" d="M 2619 0 
L 981 3566 
L 981 734 
Q 981 344 1066 247 
Q 1181 116 1431 116 
L 1581 116 
L 1581 0 
L 106 0 
L 106 116 
L 256 116 
Q 525 116 638 278 
Q 706 378 706 734 
L 706 3503 
Q 706 3784 644 3909 
Q 600 4000 483 4061 
Q 366 4122 106 4122 
L 106 4238 
L 1306 4238 
L 2844 922 
L 4356 4238 
L 5556 4238 
L 5556 4122 
L 5409 4122 
Q 5138 4122 5025 3959 
Q 4956 3859 4956 3503 
L 4956 734 
Q 4956 344 5044 247 
Q 5159 116 5409 116 
L 5556 116 
L 5556 0 
L 3756 0 
L 3756 116 
L 3906 116 
Q 4178 116 4288 278 
Q 4356 378 4356 734 
L 4356 3566 
L 2722 0 
L 2619 0 
z
" transform="scale(0.015625)"/>
      <path id="TimesNewRomanPSMT-44" d="M 109 0 
L 109 116 
L 269 116 
Q 538 116 650 288 
Q 719 391 719 750 
L 719 3488 
Q 719 3884 631 3984 
Q 509 4122 269 4122 
L 109 4122 
L 109 4238 
L 1834 4238 
Q 2784 4238 3279 4022 
Q 3775 3806 4076 3303 
Q 4378 2800 4378 2141 
Q 4378 1256 3841 663 
Q 3238 0 2003 0 
L 109 0 
z
M 1319 306 
Q 1716 219 1984 219 
Q 2709 219 3187 728 
Q 3666 1238 3666 2109 
Q 3666 2988 3187 3494 
Q 2709 4000 1959 4000 
Q 1678 4000 1319 3909 
L 1319 306 
z
" transform="scale(0.015625)"/>
      <path id="TimesNewRomanPSMT-53" d="M 2934 4334 
L 2934 2869 
L 2819 2869 
Q 2763 3291 2617 3541 
Q 2472 3791 2203 3937 
Q 1934 4084 1647 4084 
Q 1322 4084 1109 3886 
Q 897 3688 897 3434 
Q 897 3241 1031 3081 
Q 1225 2847 1953 2456 
Q 2547 2138 2764 1967 
Q 2981 1797 3098 1565 
Q 3216 1334 3216 1081 
Q 3216 600 2842 251 
Q 2469 -97 1881 -97 
Q 1697 -97 1534 -69 
Q 1438 -53 1133 45 
Q 828 144 747 144 
Q 669 144 623 97 
Q 578 50 556 -97 
L 441 -97 
L 441 1356 
L 556 1356 
Q 638 900 775 673 
Q 913 447 1195 297 
Q 1478 147 1816 147 
Q 2206 147 2432 353 
Q 2659 559 2659 841 
Q 2659 997 2573 1156 
Q 2488 1316 2306 1453 
Q 2184 1547 1640 1851 
Q 1097 2156 867 2337 
Q 638 2519 519 2737 
Q 400 2956 400 3219 
Q 400 3675 750 4004 
Q 1100 4334 1641 4334 
Q 1978 4334 2356 4169 
Q 2531 4091 2603 4091 
Q 2684 4091 2736 4139 
Q 2788 4188 2819 4334 
L 2934 4334 
z
" transform="scale(0.015625)"/>
     </defs>
     <use xlink:href="#TimesNewRomanPSMT-42"/>
     <use xlink:href="#TimesNewRomanPSMT-4d" x="66.699219"/>
     <use xlink:href="#TimesNewRomanPSMT-44" x="155.615234"/>
     <use xlink:href="#TimesNewRomanPSMT-53" x="227.832031"/>
    </g>
   </g>
  </g>
  <g id="axes_4">
   <g id="patch_36">
    <path d="M 398.880755 383.75368 
L 709.2 383.75368 
L 709.2 207.72316 
L 398.880755 207.72316 
z
" style="fill: #ffffff"/>
   </g>
   <g id="patch_37">
    <path d="M 403.313887 383.75368 
L 438.778943 383.75368 
L 438.778943 225.527994 
L 403.313887 225.527994 
z
" clip-path="url(#p7d1d78857d)" style="fill: #d1483c"/>
   </g>
   <g id="patch_38">
    <path d="M 447.645208 383.75368 
L 483.110264 383.75368 
L 483.110264 360.642063 
L 447.645208 360.642063 
z
" clip-path="url(#p7d1d78857d)" style="fill: #df8820"/>
   </g>
   <g id="patch_39">
    <path d="M 491.976528 383.75368 
L 527.441585 383.75368 
L 527.441585 381.975863 
L 491.976528 381.975863 
z
" clip-path="url(#p7d1d78857d)" style="fill: #e3b141"/>
   </g>
   <g id="patch_40">
    <path d="M 536.307849 383.75368 
L 571.772906 383.75368 
L 571.772906 374.864596 
L 536.307849 374.864596 
z
" clip-path="url(#p7d1d78857d)" style="fill: #319f58"/>
   </g>
   <g id="patch_41">
    <path d="M 580.63917 383.75368 
L 616.104226 383.75368 
L 616.104226 380.198046 
L 580.63917 380.198046 
z
" clip-path="url(#p7d1d78857d)" style="fill: #1f7bd5"/>
   </g>
   <g id="patch_42">
    <path d="M 624.970491 383.75368 
L 660.435547 383.75368 
L 660.435547 378.42023 
L 624.970491 378.42023 
z
" clip-path="url(#p7d1d78857d)" style="fill: #6484e4"/>
   </g>
   <g id="patch_43">
    <path d="M 669.301811 383.75368 
L 704.766868 383.75368 
L 704.766868 380.198046 
L 669.301811 380.198046 
z
" clip-path="url(#p7d1d78857d)" style="fill: #a489ed"/>
   </g>
   <g id="matplotlib.axis_7">
    <g id="xtick_22">
     <g id="line2d_34">
      <g>
       <use xlink:href="#m727085ff40" x="421.046415" y="383.75368" style="stroke: #000000; stroke-width: 0.8"/>
      </g>
     </g>
    </g>
    <g id="xtick_23">
     <g id="line2d_35">
      <g>
       <use xlink:href="#m727085ff40" x="465.377736" y="383.75368" style="stroke: #000000; stroke-width: 0.8"/>
      </g>
     </g>
    </g>
    <g id="xtick_24">
     <g id="line2d_36">
      <g>
       <use xlink:href="#m727085ff40" x="509.709057" y="383.75368" style="stroke: #000000; stroke-width: 0.8"/>
      </g>
     </g>
    </g>
    <g id="xtick_25">
     <g id="line2d_37">
      <g>
       <use xlink:href="#m727085ff40" x="554.040377" y="383.75368" style="stroke: #000000; stroke-width: 0.8"/>
      </g>
     </g>
    </g>
    <g id="xtick_26">
     <g id="line2d_38">
      <g>
       <use xlink:href="#m727085ff40" x="598.371698" y="383.75368" style="stroke: #000000; stroke-width: 0.8"/>
      </g>
     </g>
    </g>
    <g id="xtick_27">
     <g id="line2d_39">
      <g>
       <use xlink:href="#m727085ff40" x="642.703019" y="383.75368" style="stroke: #000000; stroke-width: 0.8"/>
      </g>
     </g>
    </g>
    <g id="xtick_28">
     <g id="line2d_40">
      <g>
       <use xlink:href="#m727085ff40" x="687.03434" y="383.75368" style="stroke: #000000; stroke-width: 0.8"/>
      </g>
     </g>
    </g>
   </g>
   <g id="matplotlib.axis_8">
    <g id="ytick_13">
     <g id="line2d_41">
      <g>
       <use xlink:href="#md4c9fd8588" x="398.880755" y="383.75368" style="stroke: #000000; stroke-width: 0.8"/>
      </g>
     </g>
    </g>
    <g id="ytick_14">
     <g id="line2d_42">
      <g>
       <use xlink:href="#md4c9fd8588" x="398.880755" y="332.64145" style="stroke: #000000; stroke-width: 0.8"/>
      </g>
     </g>
    </g>
    <g id="ytick_15">
     <g id="line2d_43">
      <g>
       <use xlink:href="#md4c9fd8588" x="398.880755" y="281.52922" style="stroke: #000000; stroke-width: 0.8"/>
      </g>
     </g>
    </g>
    <g id="ytick_16">
     <g id="line2d_44">
      <g>
       <use xlink:href="#md4c9fd8588" x="398.880755" y="230.41699" style="stroke: #000000; stroke-width: 0.8"/>
      </g>
     </g>
    </g>
   </g>
   <g id="patch_44">
    <path d="M 398.880755 383.75368 
L 398.880755 207.72316 
" style="fill: none; stroke: #000000; stroke-width: 0.8; stroke-linejoin: miter; stroke-linecap: square"/>
   </g>
   <g id="patch_45">
    <path d="M 709.2 383.75368 
L 709.2 207.72316 
" style="fill: none; stroke: #000000; stroke-width: 0.8; stroke-linejoin: miter; stroke-linecap: square"/>
   </g>
   <g id="patch_46">
    <path d="M 398.880755 383.75368 
L 709.2 383.75368 
" style="fill: none; stroke: #000000; stroke-width: 0.8; stroke-linejoin: miter; stroke-linecap: square"/>
   </g>
   <g id="patch_47">
    <path d="M 398.880755 207.72316 
L 709.2 207.72316 
" style="fill: none; stroke: #000000; stroke-width: 0.8; stroke-linejoin: miter; stroke-linecap: square"/>
   </g>
   <g id="text_12">
    <!-- PUE -->
    <g transform="translate(531.371627 231.091837) scale(0.24 -0.24)">
     <defs>
      <path id="TimesNewRomanPSMT-50" d="M 1313 1984 
L 1313 750 
Q 1313 350 1400 253 
Q 1519 116 1759 116 
L 1922 116 
L 1922 0 
L 106 0 
L 106 116 
L 266 116 
Q 534 116 650 291 
Q 713 388 713 750 
L 713 3488 
Q 713 3888 628 3984 
Q 506 4122 266 4122 
L 106 4122 
L 106 4238 
L 1659 4238 
Q 2228 4238 2556 4120 
Q 2884 4003 3109 3725 
Q 3334 3447 3334 3066 
Q 3334 2547 2992 2222 
Q 2650 1897 2025 1897 
Q 1872 1897 1694 1919 
Q 1516 1941 1313 1984 
z
M 1313 2163 
Q 1478 2131 1606 2115 
Q 1734 2100 1825 2100 
Q 2150 2100 2386 2351 
Q 2622 2603 2622 3003 
Q 2622 3278 2509 3514 
Q 2397 3750 2190 3867 
Q 1984 3984 1722 3984 
Q 1563 3984 1313 3925 
L 1313 2163 
z
" transform="scale(0.015625)"/>
      <path id="TimesNewRomanPSMT-55" d="M 3053 4122 
L 3053 4238 
L 4553 4238 
L 4553 4122 
L 4394 4122 
Q 4144 4122 4009 3913 
Q 3944 3816 3944 3463 
L 3944 1744 
Q 3944 1106 3817 754 
Q 3691 403 3320 151 
Q 2950 -100 2313 -100 
Q 1619 -100 1259 140 
Q 900 381 750 788 
Q 650 1066 650 1831 
L 650 3488 
Q 650 3878 542 4000 
Q 434 4122 194 4122 
L 34 4122 
L 34 4238 
L 1866 4238 
L 1866 4122 
L 1703 4122 
Q 1441 4122 1328 3956 
Q 1250 3844 1250 3488 
L 1250 1641 
Q 1250 1394 1295 1075 
Q 1341 756 1459 578 
Q 1578 400 1801 284 
Q 2025 169 2350 169 
Q 2766 169 3094 350 
Q 3422 531 3542 814 
Q 3663 1097 3663 1772 
L 3663 3488 
Q 3663 3884 3575 3984 
Q 3453 4122 3213 4122 
L 3053 4122 
z
" transform="scale(0.015625)"/>
      <path id="TimesNewRomanPSMT-45" d="M 1338 4006 
L 1338 2331 
L 2269 2331 
Q 2631 2331 2753 2441 
Q 2916 2584 2934 2947 
L 3050 2947 
L 3050 1472 
L 2934 1472 
Q 2891 1781 2847 1869 
Q 2791 1978 2662 2040 
Q 2534 2103 2269 2103 
L 1338 2103 
L 1338 706 
Q 1338 425 1363 364 
Q 1388 303 1450 267 
Q 1513 231 1688 231 
L 2406 231 
Q 2766 231 2928 281 
Q 3091 331 3241 478 
Q 3434 672 3638 1063 
L 3763 1063 
L 3397 0 
L 131 0 
L 131 116 
L 281 116 
Q 431 116 566 188 
Q 666 238 702 338 
Q 738 438 738 747 
L 738 3500 
Q 738 3903 656 3997 
Q 544 4122 281 4122 
L 131 4122 
L 131 4238 
L 3397 4238 
L 3444 3309 
L 3322 3309 
Q 3256 3644 3176 3769 
Q 3097 3894 2941 3959 
Q 2816 4006 2500 4006 
L 1338 4006 
z
" transform="scale(0.015625)"/>
     </defs>
     <use xlink:href="#TimesNewRomanPSMT-50"/>
     <use xlink:href="#TimesNewRomanPSMT-55" x="55.615234"/>
     <use xlink:href="#TimesNewRomanPSMT-45" x="127.832031"/>
    </g>
   </g>
  </g>
  <g id="axes_5">
   <g id="patch_48">
    <path d="M 72 580.67684 
L 382.319245 580.67684 
L 382.319245 404.64632 
L 72 404.64632 
z
" style="fill: #ffffff"/>
   </g>
   <g id="patch_49">
    <path d="M 76.433132 580.67684 
L 111.898189 580.67684 
L 111.898189 467.443592 
L 76.433132 467.443592 
z
" clip-path="url(#p7ec670a5ab)" style="fill: #d1483c"/>
   </g>
   <g id="patch_50">
    <path d="M 120.764453 580.67684 
L 156.229509 580.67684 
L 156.229509 555.513896 
L 120.764453 555.513896 
z
" clip-path="url(#p7ec670a5ab)" style="fill: #df8820"/>
   </g>
   <g id="patch_51">
    <path d="M 209.427094 580.67684 
L 244.892151 580.67684 
L 244.892151 552.368528 
L 209.427094 552.368528 
z
" clip-path="url(#p7ec670a5ab)" style="fill: #319f58"/>
   </g>
   <g id="patch_52">
    <path d="M 253.758415 580.67684 
L 289.223472 580.67684 
L 289.223472 568.095368 
L 253.758415 568.095368 
z
" clip-path="url(#p7ec670a5ab)" style="fill: #1f7bd5"/>
   </g>
   <g id="patch_53">
    <path d="M 298.089736 580.67684 
L 333.554792 580.67684 
L 333.554792 555.513896 
L 298.089736 555.513896 
z
" clip-path="url(#p7ec670a5ab)" style="fill: #6484e4"/>
   </g>
   <g id="matplotlib.axis_9">
    <g id="xtick_29">
     <g id="line2d_45">
      <g>
       <use xlink:href="#m727085ff40" x="94.16566" y="580.67684" style="stroke: #000000; stroke-width: 0.8"/>
      </g>
     </g>
    </g>
    <g id="xtick_30">
     <g id="line2d_46">
      <g>
       <use xlink:href="#m727085ff40" x="138.496981" y="580.67684" style="stroke: #000000; stroke-width: 0.8"/>
      </g>
     </g>
    </g>
    <g id="xtick_31">
     <g id="line2d_47">
      <g>
       <use xlink:href="#m727085ff40" x="182.828302" y="580.67684" style="stroke: #000000; stroke-width: 0.8"/>
      </g>
     </g>
    </g>
    <g id="xtick_32">
     <g id="line2d_48">
      <g>
       <use xlink:href="#m727085ff40" x="227.159623" y="580.67684" style="stroke: #000000; stroke-width: 0.8"/>
      </g>
     </g>
    </g>
    <g id="xtick_33">
     <g id="line2d_49">
      <g>
       <use xlink:href="#m727085ff40" x="271.490943" y="580.67684" style="stroke: #000000; stroke-width: 0.8"/>
      </g>
     </g>
    </g>
    <g id="xtick_34">
     <g id="line2d_50">
      <g>
       <use xlink:href="#m727085ff40" x="315.822264" y="580.67684" style="stroke: #000000; stroke-width: 0.8"/>
      </g>
     </g>
    </g>
    <g id="xtick_35">
     <g id="line2d_51">
      <g>
       <use xlink:href="#m727085ff40" x="360.153585" y="580.67684" style="stroke: #000000; stroke-width: 0.8"/>
      </g>
     </g>
    </g>
   </g>
   <g id="matplotlib.axis_10">
    <g id="ytick_17">
     <g id="line2d_52">
      <g>
       <use xlink:href="#md4c9fd8588" x="72" y="580.67684" style="stroke: #000000; stroke-width: 0.8"/>
      </g>
     </g>
     <g id="text_13">
      <!-- 0 -->
      <g transform="translate(56 586.926215) scale(0.18 -0.18)">
       <use xlink:href="#TimesNewRomanPSMT-30"/>
      </g>
     </g>
    </g>
    <g id="ytick_18">
     <g id="line2d_53">
      <g>
       <use xlink:href="#md4c9fd8588" x="72" y="529.56461" style="stroke: #000000; stroke-width: 0.8"/>
      </g>
     </g>
     <g id="text_14">
      <!-- 25 -->
      <g transform="translate(47 535.813985) scale(0.18 -0.18)">
       <use xlink:href="#TimesNewRomanPSMT-32"/>
       <use xlink:href="#TimesNewRomanPSMT-35" x="50"/>
      </g>
     </g>
    </g>
    <g id="ytick_19">
     <g id="line2d_54">
      <g>
       <use xlink:href="#md4c9fd8588" x="72" y="478.45238" style="stroke: #000000; stroke-width: 0.8"/>
      </g>
     </g>
     <g id="text_15">
      <!-- 50 -->
      <g transform="translate(47 484.701755) scale(0.18 -0.18)">
       <use xlink:href="#TimesNewRomanPSMT-35"/>
       <use xlink:href="#TimesNewRomanPSMT-30" x="50"/>
      </g>
     </g>
    </g>
    <g id="ytick_20">
     <g id="line2d_55">
      <g>
       <use xlink:href="#md4c9fd8588" x="72" y="427.34015" style="stroke: #000000; stroke-width: 0.8"/>
      </g>
     </g>
     <g id="text_16">
      <!-- 75 -->
      <g transform="translate(47 433.589525) scale(0.18 -0.18)">
       <use xlink:href="#TimesNewRomanPSMT-37"/>
       <use xlink:href="#TimesNewRomanPSMT-35" x="50"/>
      </g>
     </g>
    </g>
   </g>
   <g id="patch_54">
    <path d="M 72 580.67684 
L 72 404.64632 
" style="fill: none; stroke: #000000; stroke-width: 0.8; stroke-linejoin: miter; stroke-linecap: square"/>
   </g>
   <g id="patch_55">
    <path d="M 382.319245 580.67684 
L 382.319245 404.64632 
" style="fill: none; stroke: #000000; stroke-width: 0.8; stroke-linejoin: miter; stroke-linecap: square"/>
   </g>
   <g id="patch_56">
    <path d="M 72 580.67684 
L 382.319245 580.67684 
" style="fill: none; stroke: #000000; stroke-width: 0.8; stroke-linejoin: miter; stroke-linecap: square"/>
   </g>
   <g id="patch_57">
    <path d="M 72 404.64632 
L 382.319245 404.64632 
" style="fill: none; stroke: #000000; stroke-width: 0.8; stroke-linejoin: miter; stroke-linecap: square"/>
   </g>
   <g id="text_17">
    <!-- Crystal Structure -->
    <g transform="translate(145.508998 427.992497) scale(0.24 -0.24)">
     <defs>
      <path id="TimesNewRomanPSMT-79" d="M 38 2863 
L 1372 2863 
L 1372 2747 
L 1306 2747 
Q 1166 2747 1095 2686 
Q 1025 2625 1025 2534 
Q 1025 2413 1128 2197 
L 1825 753 
L 2466 2334 
Q 2519 2463 2519 2588 
Q 2519 2644 2497 2672 
Q 2472 2706 2419 2726 
Q 2366 2747 2231 2747 
L 2231 2863 
L 3163 2863 
L 3163 2747 
Q 3047 2734 2984 2696 
Q 2922 2659 2847 2556 
Q 2819 2513 2741 2316 
L 1575 -541 
Q 1406 -956 1132 -1168 
Q 859 -1381 606 -1381 
Q 422 -1381 303 -1275 
Q 184 -1169 184 -1031 
Q 184 -900 270 -820 
Q 356 -741 506 -741 
Q 609 -741 788 -809 
Q 913 -856 944 -856 
Q 1038 -856 1148 -759 
Q 1259 -663 1372 -384 
L 1575 113 
L 547 2272 
Q 500 2369 397 2513 
Q 319 2622 269 2659 
Q 197 2709 38 2747 
L 38 2863 
z
" transform="scale(0.015625)"/>
      <path id="TimesNewRomanPSMT-75" d="M 2709 2863 
L 2709 1128 
Q 2709 631 2732 520 
Q 2756 409 2807 365 
Q 2859 322 2928 322 
Q 3025 322 3147 375 
L 3191 266 
L 2334 -88 
L 2194 -88 
L 2194 519 
Q 1825 119 1631 15 
Q 1438 -88 1222 -88 
Q 981 -88 804 51 
Q 628 191 559 409 
Q 491 628 491 1028 
L 491 2306 
Q 491 2509 447 2587 
Q 403 2666 317 2708 
Q 231 2750 6 2747 
L 6 2863 
L 1009 2863 
L 1009 947 
Q 1009 547 1148 422 
Q 1288 297 1484 297 
Q 1619 297 1789 381 
Q 1959 466 2194 703 
L 2194 2325 
Q 2194 2569 2105 2655 
Q 2016 2741 1734 2747 
L 1734 2863 
L 2709 2863 
z
" transform="scale(0.015625)"/>
     </defs>
     <use xlink:href="#TimesNewRomanPSMT-43"/>
     <use xlink:href="#TimesNewRomanPSMT-72" x="66.699219"/>
     <use xlink:href="#TimesNewRomanPSMT-79" x="100"/>
     <use xlink:href="#TimesNewRomanPSMT-73" x="150"/>
     <use xlink:href="#TimesNewRomanPSMT-74" x="188.916016"/>
     <use xlink:href="#TimesNewRomanPSMT-61" x="216.699219"/>
     <use xlink:href="#TimesNewRomanPSMT-6c" x="261.083984"/>
     <use xlink:href="#TimesNewRomanPSMT-20" x="288.867188"/>
     <use xlink:href="#TimesNewRomanPSMT-53" x="313.867188"/>
     <use xlink:href="#TimesNewRomanPSMT-74" x="369.482422"/>
     <use xlink:href="#TimesNewRomanPSMT-72" x="397.265625"/>
     <use xlink:href="#TimesNewRomanPSMT-75" x="430.566406"/>
     <use xlink:href="#TimesNewRomanPSMT-63" x="480.566406"/>
     <use xlink:href="#TimesNewRomanPSMT-74" x="524.951172"/>
     <use xlink:href="#TimesNewRomanPSMT-75" x="552.734375"/>
     <use xlink:href="#TimesNewRomanPSMT-72" x="602.734375"/>
     <use xlink:href="#TimesNewRomanPSMT-65" x="636.035156"/>
    </g>
   </g>
  </g>
  <g id="axes_6">
   <g id="patch_58">
    <path d="M 398.880755 580.67684 
L 709.2 580.67684 
L 709.2 404.64632 
L 398.880755 404.64632 
z
" style="fill: #ffffff"/>
   </g>
   <g id="patch_59">
    <path d="M 403.313887 580.67684 
L 438.778943 580.67684 
L 438.778943 564.320926 
L 403.313887 564.320926 
z
" clip-path="url(#pdeaa95789a)" style="fill: #d1483c"/>
   </g>
   <g id="patch_60">
    <path d="M 491.976528 580.67684 
L 527.441585 580.67684 
L 527.441585 564.320926 
L 491.976528 564.320926 
z
" clip-path="url(#pdeaa95789a)" style="fill: #e3b141"/>
   </g>
   <g id="patch_61">
    <path d="M 624.970491 580.67684 
L 660.435547 580.67684 
L 660.435547 576.587862 
L 624.970491 576.587862 
z
" clip-path="url(#pdeaa95789a)" style="fill: #6484e4"/>
   </g>
   <g id="patch_62">
    <path d="M 669.301811 580.67684 
L 704.766868 580.67684 
L 704.766868 413.028726 
L 669.301811 413.028726 
z
" clip-path="url(#pdeaa95789a)" style="fill: #a489ed"/>
   </g>
   <g id="matplotlib.axis_11">
    <g id="xtick_36">
     <g id="line2d_56">
      <g>
       <use xlink:href="#m727085ff40" x="421.046415" y="580.67684" style="stroke: #000000; stroke-width: 0.8"/>
      </g>
     </g>
    </g>
    <g id="xtick_37">
     <g id="line2d_57">
      <g>
       <use xlink:href="#m727085ff40" x="465.377736" y="580.67684" style="stroke: #000000; stroke-width: 0.8"/>
      </g>
     </g>
    </g>
    <g id="xtick_38">
     <g id="line2d_58">
      <g>
       <use xlink:href="#m727085ff40" x="509.709057" y="580.67684" style="stroke: #000000; stroke-width: 0.8"/>
      </g>
     </g>
    </g>
    <g id="xtick_39">
     <g id="line2d_59">
      <g>
       <use xlink:href="#m727085ff40" x="554.040377" y="580.67684" style="stroke: #000000; stroke-width: 0.8"/>
      </g>
     </g>
    </g>
    <g id="xtick_40">
     <g id="line2d_60">
      <g>
       <use xlink:href="#m727085ff40" x="598.371698" y="580.67684" style="stroke: #000000; stroke-width: 0.8"/>
      </g>
     </g>
    </g>
    <g id="xtick_41">
     <g id="line2d_61">
      <g>
       <use xlink:href="#m727085ff40" x="642.703019" y="580.67684" style="stroke: #000000; stroke-width: 0.8"/>
      </g>
     </g>
    </g>
    <g id="xtick_42">
     <g id="line2d_62">
      <g>
       <use xlink:href="#m727085ff40" x="687.03434" y="580.67684" style="stroke: #000000; stroke-width: 0.8"/>
      </g>
     </g>
    </g>
   </g>
   <g id="matplotlib.axis_12">
    <g id="ytick_21">
     <g id="line2d_63">
      <g>
       <use xlink:href="#md4c9fd8588" x="398.880755" y="580.67684" style="stroke: #000000; stroke-width: 0.8"/>
      </g>
     </g>
    </g>
    <g id="ytick_22">
     <g id="line2d_64">
      <g>
       <use xlink:href="#md4c9fd8588" x="398.880755" y="529.56461" style="stroke: #000000; stroke-width: 0.8"/>
      </g>
     </g>
    </g>
    <g id="ytick_23">
     <g id="line2d_65">
      <g>
       <use xlink:href="#md4c9fd8588" x="398.880755" y="478.45238" style="stroke: #000000; stroke-width: 0.8"/>
      </g>
     </g>
    </g>
    <g id="ytick_24">
     <g id="line2d_66">
      <g>
       <use xlink:href="#md4c9fd8588" x="398.880755" y="427.34015" style="stroke: #000000; stroke-width: 0.8"/>
      </g>
     </g>
    </g>
   </g>
   <g id="patch_63">
    <path d="M 398.880755 580.67684 
L 398.880755 404.64632 
" style="fill: none; stroke: #000000; stroke-width: 0.8; stroke-linejoin: miter; stroke-linecap: square"/>
   </g>
   <g id="patch_64">
    <path d="M 709.2 580.67684 
L 709.2 404.64632 
" style="fill: none; stroke: #000000; stroke-width: 0.8; stroke-linejoin: miter; stroke-linecap: square"/>
   </g>
   <g id="patch_65">
    <path d="M 398.880755 580.67684 
L 709.2 580.67684 
" style="fill: none; stroke: #000000; stroke-width: 0.8; stroke-linejoin: miter; stroke-linecap: square"/>
   </g>
   <g id="patch_66">
    <path d="M 398.880755 404.64632 
L 709.2 404.64632 
" style="fill: none; stroke: #000000; stroke-width: 0.8; stroke-linejoin: miter; stroke-linecap: square"/>
   </g>
   <g id="text_18">
    <!-- Glass -->
    <g transform="translate(527.372252 428.014997) scale(0.24 -0.24)">
     <defs>
      <path id="TimesNewRomanPSMT-47" d="M 3928 4334 
L 4038 2997 
L 3928 2997 
Q 3763 3497 3500 3750 
Q 3122 4116 2528 4116 
Q 1719 4116 1297 3475 
Q 944 2934 944 2188 
Q 944 1581 1178 1081 
Q 1413 581 1792 348 
Q 2172 116 2572 116 
Q 2806 116 3025 175 
Q 3244 234 3447 350 
L 3447 1575 
Q 3447 1894 3398 1992 
Q 3350 2091 3248 2142 
Q 3147 2194 2891 2194 
L 2891 2313 
L 4531 2313 
L 4531 2194 
L 4453 2194 
Q 4209 2194 4119 2031 
Q 4056 1916 4056 1575 
L 4056 278 
Q 3697 84 3347 -6 
Q 2997 -97 2569 -97 
Q 1341 -97 703 691 
Q 225 1281 225 2053 
Q 225 2613 494 3125 
Q 813 3734 1369 4063 
Q 1834 4334 2469 4334 
Q 2700 4334 2889 4296 
Q 3078 4259 3425 4131 
Q 3600 4066 3659 4066 
Q 3719 4066 3761 4120 
Q 3803 4175 3813 4334 
L 3928 4334 
z
" transform="scale(0.015625)"/>
     </defs>
     <use xlink:href="#TimesNewRomanPSMT-47"/>
     <use xlink:href="#TimesNewRomanPSMT-6c" x="72.216797"/>
     <use xlink:href="#TimesNewRomanPSMT-61" x="100"/>
     <use xlink:href="#TimesNewRomanPSMT-73" x="144.384766"/>
     <use xlink:href="#TimesNewRomanPSMT-73" x="183.300781"/>
    </g>
   </g>
  </g>
  <g id="axes_7">
   <g id="patch_67">
    <path d="M 72 777.6 
L 382.319245 777.6 
L 382.319245 601.56948 
L 72 601.56948 
z
" style="fill: #ffffff"/>
   </g>
   <g id="patch_68">
    <path d="M 76.433132 777.6 
L 111.898189 777.6 
L 111.898189 642.349176 
L 76.433132 642.349176 
z
" clip-path="url(#p5a78f6a266)" style="fill: #d1483c"/>
   </g>
   <g id="patch_69">
    <path d="M 120.764453 777.6 
L 156.229509 777.6 
L 156.229509 774.454632 
L 120.764453 774.454632 
z
" clip-path="url(#p5a78f6a266)" style="fill: #df8820"/>
   </g>
   <g id="patch_70">
    <path d="M 165.095774 777.6 
L 200.56083 777.6 
L 200.56083 752.437056 
L 165.095774 752.437056 
z
" clip-path="url(#p5a78f6a266)" style="fill: #e3b141"/>
   </g>
   <g id="patch_71">
    <path d="M 298.089736 777.6 
L 333.554792 777.6 
L 333.554792 768.163896 
L 298.089736 768.163896 
z
" clip-path="url(#p5a78f6a266)" style="fill: #6484e4"/>
   </g>
   <g id="patch_72">
    <path d="M 342.421057 777.6 
L 377.886113 777.6 
L 377.886113 746.14632 
L 342.421057 746.14632 
z
" clip-path="url(#p5a78f6a266)" style="fill: #a489ed"/>
   </g>
   <g id="matplotlib.axis_13">
    <g id="xtick_43">
     <g id="line2d_67">
      <g>
       <use xlink:href="#m727085ff40" x="94.16566" y="777.6" style="stroke: #000000; stroke-width: 0.8"/>
      </g>
     </g>
     <g id="text_19">
      <!-- ET -->
      <g transform="translate(89.449369 808.985903) rotate(-45) scale(0.18 -0.18)">
       <defs>
        <path id="TimesNewRomanPSMT-54" d="M 3703 4238 
L 3750 3244 
L 3631 3244 
Q 3597 3506 3538 3619 
Q 3441 3800 3280 3886 
Q 3119 3972 2856 3972 
L 2259 3972 
L 2259 734 
Q 2259 344 2344 247 
Q 2463 116 2709 116 
L 2856 116 
L 2856 0 
L 1059 0 
L 1059 116 
L 1209 116 
Q 1478 116 1591 278 
Q 1659 378 1659 734 
L 1659 3972 
L 1150 3972 
Q 853 3972 728 3928 
Q 566 3869 450 3700 
Q 334 3531 313 3244 
L 194 3244 
L 244 4238 
L 3703 4238 
z
" transform="scale(0.015625)"/>
       </defs>
       <use xlink:href="#TimesNewRomanPSMT-45"/>
       <use xlink:href="#TimesNewRomanPSMT-54" x="61.083984"/>
      </g>
     </g>
    </g>
    <g id="xtick_44">
     <g id="line2d_68">
      <g>
       <use xlink:href="#m727085ff40" x="138.496981" y="777.6" style="stroke: #000000; stroke-width: 0.8"/>
      </g>
     </g>
     <g id="text_20">
      <!-- GB -->
      <g transform="translate(132.713732 811.119819) rotate(-45) scale(0.18 -0.18)">
       <use xlink:href="#TimesNewRomanPSMT-47"/>
       <use xlink:href="#TimesNewRomanPSMT-42" x="72.216797"/>
      </g>
     </g>
    </g>
    <g id="xtick_45">
     <g id="line2d_69">
      <g>
       <use xlink:href="#m727085ff40" x="182.828302" y="777.6" style="stroke: #000000; stroke-width: 0.8"/>
      </g>
     </g>
     <g id="text_21">
      <!-- LGB -->
      <g transform="translate(173.158064 818.893795) rotate(-45) scale(0.18 -0.18)">
       <defs>
        <path id="TimesNewRomanPSMT-4c" d="M 3669 1172 
L 3772 1150 
L 3409 0 
L 128 0 
L 128 116 
L 288 116 
Q 556 116 672 291 
Q 738 391 738 753 
L 738 3488 
Q 738 3884 650 3984 
Q 528 4122 288 4122 
L 128 4122 
L 128 4238 
L 2047 4238 
L 2047 4122 
Q 1709 4125 1573 4059 
Q 1438 3994 1388 3894 
Q 1338 3794 1338 3416 
L 1338 753 
Q 1338 494 1388 397 
Q 1425 331 1503 300 
Q 1581 269 1991 269 
L 2300 269 
Q 2788 269 2984 341 
Q 3181 413 3343 595 
Q 3506 778 3669 1172 
z
" transform="scale(0.015625)"/>
       </defs>
       <use xlink:href="#TimesNewRomanPSMT-4c"/>
       <use xlink:href="#TimesNewRomanPSMT-47" x="61.083984"/>
       <use xlink:href="#TimesNewRomanPSMT-42" x="133.300781"/>
      </g>
     </g>
    </g>
    <g id="xtick_46">
     <g id="line2d_70">
      <g>
       <use xlink:href="#m727085ff40" x="227.159623" y="777.6" style="stroke: #000000; stroke-width: 0.8"/>
      </g>
     </g>
     <g id="text_22">
      <!-- DT -->
      <g transform="translate(221.734346 810.403873) rotate(-45) scale(0.18 -0.18)">
       <use xlink:href="#TimesNewRomanPSMT-44"/>
       <use xlink:href="#TimesNewRomanPSMT-54" x="72.216797"/>
      </g>
     </g>
    </g>
    <g id="xtick_47">
     <g id="line2d_71">
      <g>
       <use xlink:href="#m727085ff40" x="271.490943" y="777.6" style="stroke: #000000; stroke-width: 0.8"/>
      </g>
     </g>
     <g id="text_23">
      <!-- RF -->
      <g transform="translate(266.764708 809.005791) rotate(-45) scale(0.18 -0.18)">
       <defs>
        <path id="TimesNewRomanPSMT-46" d="M 1309 4006 
L 1309 2341 
L 2081 2341 
Q 2347 2341 2470 2458 
Q 2594 2575 2634 2922 
L 2750 2922 
L 2750 1488 
L 2634 1488 
Q 2631 1734 2570 1850 
Q 2509 1966 2401 2023 
Q 2294 2081 2081 2081 
L 1309 2081 
L 1309 750 
Q 1309 428 1350 325 
Q 1381 247 1481 191 
Q 1619 116 1769 116 
L 1922 116 
L 1922 0 
L 103 0 
L 103 116 
L 253 116 
Q 516 116 634 269 
Q 709 369 709 750 
L 709 3488 
Q 709 3809 669 3913 
Q 638 3991 541 4047 
Q 406 4122 253 4122 
L 103 4122 
L 103 4238 
L 3256 4238 
L 3297 3306 
L 3188 3306 
Q 3106 3603 2998 3742 
Q 2891 3881 2733 3943 
Q 2575 4006 2244 4006 
L 1309 4006 
z
" transform="scale(0.015625)"/>
       </defs>
       <use xlink:href="#TimesNewRomanPSMT-52"/>
       <use xlink:href="#TimesNewRomanPSMT-46" x="66.699219"/>
      </g>
     </g>
    </g>
    <g id="xtick_48">
     <g id="line2d_72">
      <g>
       <use xlink:href="#m727085ff40" x="315.822264" y="777.6" style="stroke: #000000; stroke-width: 0.8"/>
      </g>
     </g>
     <g id="text_24">
      <!-- XGB -->
      <g transform="translate(305.443041 820.311765) rotate(-45) scale(0.18 -0.18)">
       <defs>
        <path id="TimesNewRomanPSMT-58" d="M 2613 2347 
L 3522 991 
Q 3900 428 4083 279 
Q 4266 131 4547 116 
L 4547 0 
L 2728 0 
L 2728 116 
Q 2909 119 2997 153 
Q 3063 181 3105 239 
Q 3147 297 3147 356 
Q 3147 428 3119 500 
Q 3097 553 2947 775 
L 2228 1863 
L 1341 725 
Q 1200 544 1172 483 
Q 1144 422 1144 356 
Q 1144 256 1228 190 
Q 1313 125 1550 116 
L 1550 0 
L 47 0 
L 47 116 
Q 206 131 322 181 
Q 516 263 691 400 
Q 866 538 1091 822 
L 2091 2084 
L 1256 3306 
Q 916 3803 678 3958 
Q 441 4113 131 4122 
L 131 4238 
L 2091 4238 
L 2091 4122 
Q 1841 4113 1748 4041 
Q 1656 3969 1656 3881 
Q 1656 3766 1806 3544 
L 2456 2572 
L 3209 3525 
Q 3341 3694 3370 3756 
Q 3400 3819 3400 3884 
Q 3400 3950 3363 4000 
Q 3316 4066 3244 4092 
Q 3172 4119 2947 4122 
L 2947 4238 
L 4450 4238 
L 4450 4122 
Q 4272 4113 4159 4066 
Q 3991 3994 3850 3872 
Q 3709 3750 3453 3422 
L 2613 2347 
z
" transform="scale(0.015625)"/>
       </defs>
       <use xlink:href="#TimesNewRomanPSMT-58"/>
       <use xlink:href="#TimesNewRomanPSMT-47" x="72.216797"/>
       <use xlink:href="#TimesNewRomanPSMT-42" x="144.433594"/>
      </g>
     </g>
    </g>
    <g id="xtick_49">
     <g id="line2d_73">
      <g>
       <use xlink:href="#m727085ff40" x="360.153585" y="777.6" style="stroke: #000000; stroke-width: 0.8"/>
      </g>
     </g>
     <g id="text_25">
      <!-- Ridge -->
      <g transform="translate(347.997425 823.841775) rotate(-45) scale(0.18 -0.18)">
       <defs>
        <path id="TimesNewRomanPSMT-64" d="M 2222 322 
Q 2013 103 1813 7 
Q 1613 -88 1381 -88 
Q 913 -88 563 304 
Q 213 697 213 1313 
Q 213 1928 600 2439 
Q 988 2950 1597 2950 
Q 1975 2950 2222 2709 
L 2222 3238 
Q 2222 3728 2198 3840 
Q 2175 3953 2125 3993 
Q 2075 4034 2000 4034 
Q 1919 4034 1784 3984 
L 1744 4094 
L 2597 4444 
L 2738 4444 
L 2738 1134 
Q 2738 631 2761 520 
Q 2784 409 2836 365 
Q 2888 322 2956 322 
Q 3041 322 3181 375 
L 3216 266 
L 2366 -88 
L 2222 -88 
L 2222 322 
z
M 2222 541 
L 2222 2016 
Q 2203 2228 2109 2403 
Q 2016 2578 1861 2667 
Q 1706 2756 1559 2756 
Q 1284 2756 1069 2509 
Q 784 2184 784 1559 
Q 784 928 1059 592 
Q 1334 256 1672 256 
Q 1956 256 2222 541 
z
" transform="scale(0.015625)"/>
       </defs>
       <use xlink:href="#TimesNewRomanPSMT-52"/>
       <use xlink:href="#TimesNewRomanPSMT-69" x="66.699219"/>
       <use xlink:href="#TimesNewRomanPSMT-64" x="94.482422"/>
       <use xlink:href="#TimesNewRomanPSMT-67" x="144.482422"/>
       <use xlink:href="#TimesNewRomanPSMT-65" x="194.482422"/>
      </g>
     </g>
    </g>
   </g>
   <g id="matplotlib.axis_14">
    <g id="ytick_25">
     <g id="line2d_74">
      <g>
       <use xlink:href="#md4c9fd8588" x="72" y="777.6" style="stroke: #000000; stroke-width: 0.8"/>
      </g>
     </g>
     <g id="text_26">
      <!-- 0 -->
      <g transform="translate(56 783.849375) scale(0.18 -0.18)">
       <use xlink:href="#TimesNewRomanPSMT-30"/>
      </g>
     </g>
    </g>
    <g id="ytick_26">
     <g id="line2d_75">
      <g>
       <use xlink:href="#md4c9fd8588" x="72" y="726.48777" style="stroke: #000000; stroke-width: 0.8"/>
      </g>
     </g>
     <g id="text_27">
      <!-- 25 -->
      <g transform="translate(47 732.737145) scale(0.18 -0.18)">
       <use xlink:href="#TimesNewRomanPSMT-32"/>
       <use xlink:href="#TimesNewRomanPSMT-35" x="50"/>
      </g>
     </g>
    </g>
    <g id="ytick_27">
     <g id="line2d_76">
      <g>
       <use xlink:href="#md4c9fd8588" x="72" y="675.37554" style="stroke: #000000; stroke-width: 0.8"/>
      </g>
     </g>
     <g id="text_28">
      <!-- 50 -->
      <g transform="translate(47 681.624915) scale(0.18 -0.18)">
       <use xlink:href="#TimesNewRomanPSMT-35"/>
       <use xlink:href="#TimesNewRomanPSMT-30" x="50"/>
      </g>
     </g>
    </g>
    <g id="ytick_28">
     <g id="line2d_77">
      <g>
       <use xlink:href="#md4c9fd8588" x="72" y="624.26331" style="stroke: #000000; stroke-width: 0.8"/>
      </g>
     </g>
     <g id="text_29">
      <!-- 75 -->
      <g transform="translate(47 630.512685) scale(0.18 -0.18)">
       <use xlink:href="#TimesNewRomanPSMT-37"/>
       <use xlink:href="#TimesNewRomanPSMT-35" x="50"/>
      </g>
     </g>
    </g>
   </g>
   <g id="patch_73">
    <path d="M 72 777.6 
L 72 601.56948 
" style="fill: none; stroke: #000000; stroke-width: 0.8; stroke-linejoin: miter; stroke-linecap: square"/>
   </g>
   <g id="patch_74">
    <path d="M 382.319245 777.6 
L 382.319245 601.56948 
" style="fill: none; stroke: #000000; stroke-width: 0.8; stroke-linejoin: miter; stroke-linecap: square"/>
   </g>
   <g id="patch_75">
    <path d="M 72 777.6 
L 382.319245 777.6 
" style="fill: none; stroke: #000000; stroke-width: 0.8; stroke-linejoin: miter; stroke-linecap: square"/>
   </g>
   <g id="patch_76">
    <path d="M 72 601.56948 
L 382.319245 601.56948 
" style="fill: none; stroke: #000000; stroke-width: 0.8; stroke-linejoin: miter; stroke-linecap: square"/>
   </g>
   <g id="text_30">
    <!-- Band Gap -->
    <g transform="translate(178.835248 624.938157) scale(0.24 -0.24)">
     <defs>
      <path id="TimesNewRomanPSMT-70" d="M -6 2578 
L 875 2934 
L 994 2934 
L 994 2266 
Q 1216 2644 1439 2795 
Q 1663 2947 1909 2947 
Q 2341 2947 2628 2609 
Q 2981 2197 2981 1534 
Q 2981 794 2556 309 
Q 2206 -88 1675 -88 
Q 1444 -88 1275 -22 
Q 1150 25 994 166 
L 994 -706 
Q 994 -1000 1030 -1079 
Q 1066 -1159 1155 -1206 
Q 1244 -1253 1478 -1253 
L 1478 -1369 
L -22 -1369 
L -22 -1253 
L 56 -1253 
Q 228 -1256 350 -1188 
Q 409 -1153 442 -1076 
Q 475 -1000 475 -688 
L 475 2019 
Q 475 2297 450 2372 
Q 425 2447 370 2484 
Q 316 2522 222 2522 
Q 147 2522 31 2478 
L -6 2578 
z
M 994 2081 
L 994 1013 
Q 994 666 1022 556 
Q 1066 375 1236 237 
Q 1406 100 1666 100 
Q 1978 100 2172 344 
Q 2425 663 2425 1241 
Q 2425 1897 2138 2250 
Q 1938 2494 1663 2494 
Q 1513 2494 1366 2419 
Q 1253 2363 994 2081 
z
" transform="scale(0.015625)"/>
     </defs>
     <use xlink:href="#TimesNewRomanPSMT-42"/>
     <use xlink:href="#TimesNewRomanPSMT-61" x="66.699219"/>
     <use xlink:href="#TimesNewRomanPSMT-6e" x="111.083984"/>
     <use xlink:href="#TimesNewRomanPSMT-64" x="161.083984"/>
     <use xlink:href="#TimesNewRomanPSMT-20" x="211.083984"/>
     <use xlink:href="#TimesNewRomanPSMT-47" x="236.083984"/>
     <use xlink:href="#TimesNewRomanPSMT-61" x="308.300781"/>
     <use xlink:href="#TimesNewRomanPSMT-70" x="352.685547"/>
    </g>
   </g>
  </g>
  <g id="axes_8">
   <g id="patch_77">
    <path d="M 398.880755 777.6 
L 709.2 777.6 
L 709.2 601.56948 
L 398.880755 601.56948 
z
" style="fill: #ffffff"/>
   </g>
   <g id="patch_78">
    <path d="M 403.313887 777.6 
L 438.778943 777.6 
L 438.778943 672.637616 
L 403.313887 672.637616 
z
" clip-path="url(#pe691420156)" style="fill: #d1483c"/>
   </g>
   <g id="patch_79">
    <path d="M 447.645208 777.6 
L 483.110264 777.6 
L 483.110264 754.936853 
L 447.645208 754.936853 
z
" clip-path="url(#pe691420156)" style="fill: #df8820"/>
   </g>
   <g id="patch_80">
    <path d="M 491.976528 777.6 
L 527.441585 777.6 
L 527.441585 766.027694 
L 491.976528 766.027694 
z
" clip-path="url(#pe691420156)" style="fill: #e3b141"/>
   </g>
   <g id="patch_81">
    <path d="M 536.307849 777.6 
L 571.772906 777.6 
L 571.772906 766.963924 
L 536.307849 766.963924 
z
" clip-path="url(#pe691420156)" style="fill: #319f58"/>
   </g>
   <g id="patch_82">
    <path d="M 580.63917 777.6 
L 616.104226 777.6 
L 616.104226 768.090309 
L 580.63917 768.090309 
z
" clip-path="url(#pe691420156)" style="fill: #1f7bd5"/>
   </g>
   <g id="patch_83">
    <path d="M 624.970491 777.6 
L 660.435547 777.6 
L 660.435547 763.977018 
L 624.970491 763.977018 
z
" clip-path="url(#pe691420156)" style="fill: #6484e4"/>
   </g>
   <g id="patch_84">
    <path d="M 669.301811 777.6 
L 704.766868 777.6 
L 704.766868 746.117667 
L 669.301811 746.117667 
z
" clip-path="url(#pe691420156)" style="fill: #a489ed"/>
   </g>
   <g id="matplotlib.axis_15">
    <g id="xtick_50">
     <g id="line2d_78">
      <g>
       <use xlink:href="#m727085ff40" x="421.046415" y="777.6" style="stroke: #000000; stroke-width: 0.8"/>
      </g>
     </g>
     <g id="text_31">
      <!-- ET -->
      <g transform="translate(416.330123 808.985903) rotate(-45) scale(0.18 -0.18)">
       <use xlink:href="#TimesNewRomanPSMT-45"/>
       <use xlink:href="#TimesNewRomanPSMT-54" x="61.083984"/>
      </g>
     </g>
    </g>
    <g id="xtick_51">
     <g id="line2d_79">
      <g>
       <use xlink:href="#m727085ff40" x="465.377736" y="777.6" style="stroke: #000000; stroke-width: 0.8"/>
      </g>
     </g>
     <g id="text_32">
      <!-- GB -->
      <g transform="translate(459.594486 811.119819) rotate(-45) scale(0.18 -0.18)">
       <use xlink:href="#TimesNewRomanPSMT-47"/>
       <use xlink:href="#TimesNewRomanPSMT-42" x="72.216797"/>
      </g>
     </g>
    </g>
    <g id="xtick_52">
     <g id="line2d_80">
      <g>
       <use xlink:href="#m727085ff40" x="509.709057" y="777.6" style="stroke: #000000; stroke-width: 0.8"/>
      </g>
     </g>
     <g id="text_33">
      <!-- LGB -->
      <g transform="translate(500.038819 818.893795) rotate(-45) scale(0.18 -0.18)">
       <use xlink:href="#TimesNewRomanPSMT-4c"/>
       <use xlink:href="#TimesNewRomanPSMT-47" x="61.083984"/>
       <use xlink:href="#TimesNewRomanPSMT-42" x="133.300781"/>
      </g>
     </g>
    </g>
    <g id="xtick_53">
     <g id="line2d_81">
      <g>
       <use xlink:href="#m727085ff40" x="554.040377" y="777.6" style="stroke: #000000; stroke-width: 0.8"/>
      </g>
     </g>
     <g id="text_34">
      <!-- DT -->
      <g transform="translate(548.615101 810.403873) rotate(-45) scale(0.18 -0.18)">
       <use xlink:href="#TimesNewRomanPSMT-44"/>
       <use xlink:href="#TimesNewRomanPSMT-54" x="72.216797"/>
      </g>
     </g>
    </g>
    <g id="xtick_54">
     <g id="line2d_82">
      <g>
       <use xlink:href="#m727085ff40" x="598.371698" y="777.6" style="stroke: #000000; stroke-width: 0.8"/>
      </g>
     </g>
     <g id="text_35">
      <!-- RF -->
      <g transform="translate(593.645463 809.005791) rotate(-45) scale(0.18 -0.18)">
       <use xlink:href="#TimesNewRomanPSMT-52"/>
       <use xlink:href="#TimesNewRomanPSMT-46" x="66.699219"/>
      </g>
     </g>
    </g>
    <g id="xtick_55">
     <g id="line2d_83">
      <g>
       <use xlink:href="#m727085ff40" x="642.703019" y="777.6" style="stroke: #000000; stroke-width: 0.8"/>
      </g>
     </g>
     <g id="text_36">
      <!-- XGB -->
      <g transform="translate(632.323796 820.311765) rotate(-45) scale(0.18 -0.18)">
       <use xlink:href="#TimesNewRomanPSMT-58"/>
       <use xlink:href="#TimesNewRomanPSMT-47" x="72.216797"/>
       <use xlink:href="#TimesNewRomanPSMT-42" x="144.433594"/>
      </g>
     </g>
    </g>
    <g id="xtick_56">
     <g id="line2d_84">
      <g>
       <use xlink:href="#m727085ff40" x="687.03434" y="777.6" style="stroke: #000000; stroke-width: 0.8"/>
      </g>
     </g>
     <g id="text_37">
      <!-- Ridge -->
      <g transform="translate(674.87818 823.841775) rotate(-45) scale(0.18 -0.18)">
       <use xlink:href="#TimesNewRomanPSMT-52"/>
       <use xlink:href="#TimesNewRomanPSMT-69" x="66.699219"/>
       <use xlink:href="#TimesNewRomanPSMT-64" x="94.482422"/>
       <use xlink:href="#TimesNewRomanPSMT-67" x="144.482422"/>
       <use xlink:href="#TimesNewRomanPSMT-65" x="194.482422"/>
      </g>
     </g>
    </g>
   </g>
   <g id="matplotlib.axis_16">
    <g id="ytick_29">
     <g id="line2d_85">
      <g>
       <use xlink:href="#md4c9fd8588" x="398.880755" y="777.6" style="stroke: #000000; stroke-width: 0.8"/>
      </g>
     </g>
    </g>
    <g id="ytick_30">
     <g id="line2d_86">
      <g>
       <use xlink:href="#md4c9fd8588" x="398.880755" y="726.48777" style="stroke: #000000; stroke-width: 0.8"/>
      </g>
     </g>
    </g>
    <g id="ytick_31">
     <g id="line2d_87">
      <g>
       <use xlink:href="#md4c9fd8588" x="398.880755" y="675.37554" style="stroke: #000000; stroke-width: 0.8"/>
      </g>
     </g>
    </g>
    <g id="ytick_32">
     <g id="line2d_88">
      <g>
       <use xlink:href="#md4c9fd8588" x="398.880755" y="624.26331" style="stroke: #000000; stroke-width: 0.8"/>
      </g>
     </g>
    </g>
   </g>
   <g id="line2d_89">
    <path clip-path="url(#pe691420156)" style="fill: none; stroke: #424242; stroke-width: 2.25; stroke-linecap: square"/>
   </g>
   <g id="line2d_90">
    <path clip-path="url(#pe691420156)" style="fill: none; stroke: #424242; stroke-width: 2.25; stroke-linecap: square"/>
   </g>
   <g id="line2d_91">
    <path clip-path="url(#pe691420156)" style="fill: none; stroke: #424242; stroke-width: 2.25; stroke-linecap: square"/>
   </g>
   <g id="line2d_92">
    <path clip-path="url(#pe691420156)" style="fill: none; stroke: #424242; stroke-width: 2.25; stroke-linecap: square"/>
   </g>
   <g id="line2d_93">
    <path clip-path="url(#pe691420156)" style="fill: none; stroke: #424242; stroke-width: 2.25; stroke-linecap: square"/>
   </g>
   <g id="line2d_94">
    <path clip-path="url(#pe691420156)" style="fill: none; stroke: #424242; stroke-width: 2.25; stroke-linecap: square"/>
   </g>
   <g id="line2d_95">
    <path clip-path="url(#pe691420156)" style="fill: none; stroke: #424242; stroke-width: 2.25; stroke-linecap: square"/>
   </g>
   <g id="patch_85">
    <path d="M 398.880755 777.6 
L 398.880755 601.56948 
" style="fill: none; stroke: #000000; stroke-width: 0.8; stroke-linejoin: miter; stroke-linecap: square"/>
   </g>
   <g id="patch_86">
    <path d="M 709.2 777.6 
L 709.2 601.56948 
" style="fill: none; stroke: #000000; stroke-width: 0.8; stroke-linejoin: miter; stroke-linecap: square"/>
   </g>
   <g id="patch_87">
    <path d="M 398.880755 777.6 
L 709.2 777.6 
" style="fill: none; stroke: #000000; stroke-width: 0.8; stroke-linejoin: miter; stroke-linecap: square"/>
   </g>
   <g id="patch_88">
    <path d="M 398.880755 601.56948 
L 709.2 601.56948 
" style="fill: none; stroke: #000000; stroke-width: 0.8; stroke-linejoin: miter; stroke-linecap: square"/>
   </g>
   <g id="text_38">
    <!-- Average over all seven datasets -->
    <g transform="translate(403.652252 624.915657) scale(0.24 -0.24)">
     <defs>
      <path id="TimesNewRomanPSMT-41" d="M 2928 1419 
L 1288 1419 
L 1000 750 
Q 894 503 894 381 
Q 894 284 986 211 
Q 1078 138 1384 116 
L 1384 0 
L 50 0 
L 50 116 
Q 316 163 394 238 
Q 553 388 747 847 
L 2238 4334 
L 2347 4334 
L 3822 809 
Q 4000 384 4145 257 
Q 4291 131 4550 116 
L 4550 0 
L 2878 0 
L 2878 116 
Q 3131 128 3220 200 
Q 3309 272 3309 375 
Q 3309 513 3184 809 
L 2928 1419 
z
M 2841 1650 
L 2122 3363 
L 1384 1650 
L 2841 1650 
z
" transform="scale(0.015625)"/>
      <path id="TimesNewRomanPSMT-76" d="M 53 2863 
L 1400 2863 
L 1400 2747 
L 1313 2747 
Q 1191 2747 1127 2687 
Q 1063 2628 1063 2528 
Q 1063 2419 1128 2269 
L 1794 688 
L 2463 2328 
Q 2534 2503 2534 2594 
Q 2534 2638 2509 2666 
Q 2475 2713 2422 2730 
Q 2369 2747 2206 2747 
L 2206 2863 
L 3141 2863 
L 3141 2747 
Q 2978 2734 2916 2681 
Q 2806 2588 2719 2369 
L 1703 -88 
L 1575 -88 
L 553 2328 
Q 484 2497 421 2570 
Q 359 2644 263 2694 
Q 209 2722 53 2747 
L 53 2863 
z
" transform="scale(0.015625)"/>
     </defs>
     <use xlink:href="#TimesNewRomanPSMT-41"/>
     <use xlink:href="#TimesNewRomanPSMT-76" x="64.841797"/>
     <use xlink:href="#TimesNewRomanPSMT-65" x="114.841797"/>
     <use xlink:href="#TimesNewRomanPSMT-72" x="159.226562"/>
     <use xlink:href="#TimesNewRomanPSMT-61" x="192.527344"/>
     <use xlink:href="#TimesNewRomanPSMT-67" x="236.912109"/>
     <use xlink:href="#TimesNewRomanPSMT-65" x="286.912109"/>
     <use xlink:href="#TimesNewRomanPSMT-20" x="331.296875"/>
     <use xlink:href="#TimesNewRomanPSMT-6f" x="356.296875"/>
     <use xlink:href="#TimesNewRomanPSMT-76" x="406.296875"/>
     <use xlink:href="#TimesNewRomanPSMT-65" x="456.296875"/>
     <use xlink:href="#TimesNewRomanPSMT-72" x="500.681641"/>
     <use xlink:href="#TimesNewRomanPSMT-20" x="533.982422"/>
     <use xlink:href="#TimesNewRomanPSMT-61" x="558.982422"/>
     <use xlink:href="#TimesNewRomanPSMT-6c" x="603.367188"/>
     <use xlink:href="#TimesNewRomanPSMT-6c" x="631.150391"/>
     <use xlink:href="#TimesNewRomanPSMT-20" x="658.933594"/>
     <use xlink:href="#TimesNewRomanPSMT-73" x="683.933594"/>
     <use xlink:href="#TimesNewRomanPSMT-65" x="722.849609"/>
     <use xlink:href="#TimesNewRomanPSMT-76" x="767.234375"/>
     <use xlink:href="#TimesNewRomanPSMT-65" x="817.234375"/>
     <use xlink:href="#TimesNewRomanPSMT-6e" x="861.619141"/>
     <use xlink:href="#TimesNewRomanPSMT-20" x="911.619141"/>
     <use xlink:href="#TimesNewRomanPSMT-64" x="936.619141"/>
     <use xlink:href="#TimesNewRomanPSMT-61" x="986.619141"/>
     <use xlink:href="#TimesNewRomanPSMT-74" x="1031.003906"/>
     <use xlink:href="#TimesNewRomanPSMT-61" x="1058.787109"/>
     <use xlink:href="#TimesNewRomanPSMT-73" x="1103.171875"/>
     <use xlink:href="#TimesNewRomanPSMT-65" x="1142.087891"/>
     <use xlink:href="#TimesNewRomanPSMT-74" x="1186.472656"/>
     <use xlink:href="#TimesNewRomanPSMT-73" x="1214.255859"/>
    </g>
   </g>
  </g>
  <g id="text_39">
   <!-- Top-ranked Percentage / % -->
   <g transform="translate(31.065 562.100625) rotate(-90) scale(0.24 -0.24)">
    <defs>
     <path id="TimesNewRomanPSMT-2d" d="M 259 1672 
L 1875 1672 
L 1875 1200 
L 259 1200 
L 259 1672 
z
" transform="scale(0.015625)"/>
     <path id="TimesNewRomanPSMT-6b" d="M 1047 4444 
L 1047 1597 
L 1775 2259 
Q 2006 2472 2044 2528 
Q 2069 2566 2069 2603 
Q 2069 2666 2017 2711 
Q 1966 2756 1847 2763 
L 1847 2863 
L 3091 2863 
L 3091 2763 
Q 2834 2756 2664 2684 
Q 2494 2613 2291 2428 
L 1556 1750 
L 2291 822 
Q 2597 438 2703 334 
Q 2853 188 2966 144 
Q 3044 113 3238 113 
L 3238 0 
L 1847 0 
L 1847 113 
Q 1966 116 2008 148 
Q 2050 181 2050 241 
Q 2050 313 1925 472 
L 1047 1594 
L 1047 644 
Q 1047 366 1086 278 
Q 1125 191 1197 153 
Q 1269 116 1509 113 
L 1509 0 
L 53 0 
L 53 113 
Q 272 113 381 166 
Q 447 200 481 272 
Q 528 375 528 628 
L 528 3234 
Q 528 3731 506 3842 
Q 484 3953 434 3995 
Q 384 4038 303 4038 
Q 238 4038 106 3984 
L 53 4094 
L 903 4444 
L 1047 4444 
z
" transform="scale(0.015625)"/>
     <path id="TimesNewRomanPSMT-2f" d="M 1794 4444 
L 259 -88 
L 9 -88 
L 1544 4444 
L 1794 4444 
z
" transform="scale(0.015625)"/>
     <path id="TimesNewRomanPSMT-25" d="M 4350 4334 
L 1263 -175 
L 984 -175 
L 4072 4334 
L 4350 4334 
z
M 1138 4334 
Q 1559 4334 1792 3984 
Q 2025 3634 2025 3181 
Q 2025 2638 1762 2341 
Q 1500 2044 1131 2044 
Q 884 2044 678 2180 
Q 472 2316 348 2584 
Q 225 2853 225 3181 
Q 225 3509 350 3786 
Q 475 4063 692 4198 
Q 909 4334 1138 4334 
z
M 1128 4159 
Q 969 4159 845 3971 
Q 722 3784 722 3184 
Q 722 2750 791 2522 
Q 844 2350 956 2256 
Q 1022 2200 1119 2200 
Q 1269 2200 1375 2363 
Q 1531 2603 1531 3166 
Q 1531 3759 1378 4000 
Q 1278 4159 1128 4159 
z
M 4206 2103 
Q 4428 2103 4648 1962 
Q 4869 1822 4989 1553 
Q 5109 1284 5109 963 
Q 5109 409 4843 117 
Q 4578 -175 4216 -175 
Q 3988 -175 3773 -34 
Q 3559 106 3436 367 
Q 3313 628 3313 963 
Q 3313 1291 3436 1562 
Q 3559 1834 3773 1968 
Q 3988 2103 4206 2103 
z
M 4209 1938 
Q 4059 1938 3950 1769 
Q 3809 1550 3809 941 
Q 3809 381 3953 159 
Q 4059 0 4209 0 
Q 4353 0 4466 172 
Q 4616 400 4616 956 
Q 4616 1544 4466 1778 
Q 4363 1938 4209 1938 
z
" transform="scale(0.015625)"/>
    </defs>
    <use xlink:href="#TimesNewRomanPSMT-54"/>
    <use xlink:href="#TimesNewRomanPSMT-6f" x="54.083984"/>
    <use xlink:href="#TimesNewRomanPSMT-70" x="104.083984"/>
    <use xlink:href="#TimesNewRomanPSMT-2d" x="154.083984"/>
    <use xlink:href="#TimesNewRomanPSMT-72" x="187.384766"/>
    <use xlink:href="#TimesNewRomanPSMT-61" x="220.685547"/>
    <use xlink:href="#TimesNewRomanPSMT-6e" x="265.070312"/>
    <use xlink:href="#TimesNewRomanPSMT-6b" x="315.070312"/>
    <use xlink:href="#TimesNewRomanPSMT-65" x="365.070312"/>
    <use xlink:href="#TimesNewRomanPSMT-64" x="409.455078"/>
    <use xlink:href="#TimesNewRomanPSMT-20" x="459.455078"/>
    <use xlink:href="#TimesNewRomanPSMT-50" x="484.455078"/>
    <use xlink:href="#TimesNewRomanPSMT-65" x="540.070312"/>
    <use xlink:href="#TimesNewRomanPSMT-72" x="584.455078"/>
    <use xlink:href="#TimesNewRomanPSMT-63" x="617.755859"/>
    <use xlink:href="#TimesNewRomanPSMT-65" x="662.140625"/>
    <use xlink:href="#TimesNewRomanPSMT-6e" x="706.525391"/>
    <use xlink:href="#TimesNewRomanPSMT-74" x="756.525391"/>
    <use xlink:href="#TimesNewRomanPSMT-61" x="784.308594"/>
    <use xlink:href="#TimesNewRomanPSMT-67" x="828.693359"/>
    <use xlink:href="#TimesNewRomanPSMT-65" x="878.693359"/>
    <use xlink:href="#TimesNewRomanPSMT-20" x="923.078125"/>
    <use xlink:href="#TimesNewRomanPSMT-2f" x="948.078125"/>
    <use xlink:href="#TimesNewRomanPSMT-20" x="975.861328"/>
    <use xlink:href="#TimesNewRomanPSMT-25" x="1000.861328"/>
   </g>
  </g>
 </g>
 <defs>
  <clipPath id="p3b907ef2e6">
   <rect x="72" y="10.8" width="310.319245" height="176.03052"/>
  </clipPath>
  <clipPath id="pe8e9a657c9">
   <rect x="398.880755" y="10.8" width="310.319245" height="176.03052"/>
  </clipPath>
  <clipPath id="p312b47061a">
   <rect x="72" y="207.72316" width="310.319245" height="176.03052"/>
  </clipPath>
  <clipPath id="p7d1d78857d">
   <rect x="398.880755" y="207.72316" width="310.319245" height="176.03052"/>
  </clipPath>
  <clipPath id="p7ec670a5ab">
   <rect x="72" y="404.64632" width="310.319245" height="176.03052"/>
  </clipPath>
  <clipPath id="pdeaa95789a">
   <rect x="398.880755" y="404.64632" width="310.319245" height="176.03052"/>
  </clipPath>
  <clipPath id="p5a78f6a266">
   <rect x="72" y="601.56948" width="310.319245" height="176.03052"/>
  </clipPath>
  <clipPath id="pe691420156">
   <rect x="398.880755" y="601.56948" width="310.319245" height="176.03052"/>
  </clipPath>
 </defs>
</svg>
